<svg xmlns="http://www.w3.org/2000/svg" viewBox="0 0 1366 664"><path fill="#fff" d="M0 0h1366v664H0z"/><path fill="#00f" d="M532.1 125.5H525l-12.5-35.6h7.2l8.9 25.4 9-25.4h7l-12.5 35.6zM547.9 90h11.5v35.5h-6.7V96.6H548V90h-.1zm7.7-7.4a4 4 0 0 0 3-1.2c.9-.9 1.3-1.9 1.3-3a4.2 4.2 0 0 0-4.3-4.3c-1.2-.1-2.2.3-3 1.2-.9.8-1.3 1.8-1.3 3s.4 2.2 1.2 3c.9 1 1.9 1.3 3.1 1.3zm32 23.4c1.7.6 3.2 1.7 4.5 3.1a9 9 0 0 1 2 6.2c0 2.2-.6 4.2-1.7 5.8-1.2 1.7-2.9 3-5 4-2 .9-4.5 1.3-7.2 1.3-2.2 0-4.6-.5-7.2-1.5a16 16 0 0 1-6.6-4.9l5.6-3.8c1 1.1 2.3 2 3.9 2.5 1.5.7 3 1 4.3 1 2.9 0 4.8-.5 5.7-1.5 1-1 1.5-2 1.5-2.9 0-.8-.2-1.5-.6-2-.4-.5-1.1-.9-2.1-1.2a28 28 0 0 0-4.7-1.2h-.1c-2.4-.4-4.4-1-6.2-1.6a11 11 0 0 1-4.6-3.2 9.1 9.1 0 0 1-2-6.2c0-4.2 2.5-8 6.4-9.6 2-1 4.2-1.4 6.7-1.4 2.1 0 4.5.5 7.1 1.6 2.6 1 4.8 2.6 6.6 4.8l-5.6 3.8a9 9 0 0 0-3.8-2.6 12 12 0 0 0-4.3-.9c-1.3 0-2.7.3-4.1.9-1.5.5-2.2 1.7-2.2 3.4 0 .9.2 1.6.6 2 .3.5 1 1 2 1.3 1.1.4 2.7.7 4.8 1.1 2.5.5 4.6 1 6.3 1.7zm11.9-16H611v35.5h-6.7V96.6h-4.8V90zm7.7-7.4a4 4 0 0 0 3-1.2c1-.9 1.3-1.9 1.3-3a4.2 4.2 0 0 0-4.3-4.3c-1.2-.1-2.2.3-3 1.2-.9.8-1.3 1.8-1.3 3s.4 2.2 1.3 3c.8 1 1.8 1.3 3 1.3zm21.4 34.9c.5.6 1 1 1.8 1.1.7.1 1.6.2 2.7.1h1v6.8c-4 0-7.2-.8-9.5-2.2-2.4-1.5-3.6-4.5-3.6-9V96.7h-3.8V90h3.8V77.4h6.8v12.5h6.3v6.7h-6.3v17.8c0 1.4.3 2.4.8 3v.1zm31.8-11.5c1.7.6 3.2 1.7 4.5 3.1a9 9 0 0 1 2 6.2c0 2.2-.6 4.2-1.8 5.8-1.1 1.7-2.8 3-4.9 4a19.7 19.7 0 0 1-14.4-.1 18 18 0 0 1-6.6-5l5.6-3.8c1 1.1 2.3 2 3.9 2.5 1.5.7 3 1 4.2 1 3 0 4.9-.5 5.8-1.5 1-1 1.4-2 1.4-2.9a4 4 0 0 0-.5-2c-.4-.5-1.1-.9-2.1-1.2a28 28 0 0 0-4.7-1.2h-.1a37 37 0 0 1-6.2-1.6 11 11 0 0 1-4.6-3.2 9.1 9.1 0 0 1-2-6.2c0-2.1.6-4 1.7-5.7a11 11 0 0 1 4.6-3.9c2-1 4.3-1.4 6.8-1.4 2.1 0 4.5.5 7.1 1.6 2.6 1 4.8 2.6 6.6 4.8l-5.6 3.8a9 9 0 0 0-3.8-2.6 12 12 0 0 0-4.3-.9c-1.3 0-2.7.3-4.1.9-1.5.5-2.2 1.7-2.2 3.4 0 .9.2 1.6.6 2 .3.5 1 1 2 1.3 1.1.4 2.7.7 4.8 1.1 2.5.5 4.6 1 6.3 1.7zm-460 334c2.5 2.8 3.7 6.7 3.7 11.8 0 5-1.2 9-3.7 11.9a13 13 0 0 1-10.4 4.2c-3.2 0-6-.8-8.3-2.4v1.6H176v-41.4h5.8v12.4c2.3-1.7 5-2.5 8.3-2.5a13 13 0 0 1 10.4 4.3l-.1.1zm-3.6 18.9c1-2.2 1.5-4.5 1.5-7.1a13 13 0 0 0-1.5-7c-1-1.6-2-2.5-3.2-2.9-1.2-.3-2.4-.5-3.6-.5-3.5 0-5.8 1-6.8 3.3-1 2.1-1.5 4.5-1.5 7 0 4.5 1 7.3 2.6 8.6a9.6 9.6 0 0 0 5.7 1.8c3.6 0 5.9-1 6.8-3.2zM223 468a13 13 0 0 1-10.4-4.3 18 18 0 0 1-3.8-12c0-5 1.3-9 3.8-11.8 2.4-2.8 5.9-4.3 10.3-4.3s7.9 1.5 10.4 4.3a18 18 0 0 1 3.7 11.9c0 5-1.3 9-3.7 11.9a13 13 0 0 1-10.4 4.2l.1.1zm0-26.6c-3.7 0-6 1-7 3.3-1 2.1-1.4 4.5-1.4 7 0 4.5.9 7.3 2.6 8.6a9.6 9.6 0 0 0 5.7 1.8c3.6 0 5.8-1 6.8-3.2s1.5-4.5 1.5-7.1c0-4.5-.9-7.3-2.6-8.5s-3.6-1.9-5.7-1.9h.1zm47.4 18.8c.3.5.8.8 1.5 1l3 .1h.3v5.8c-2.1 0-4-.2-5.6-.6a7 7 0 0 1-3.8-2.5c-2.5 2.6-5.9 4-10 4a13 13 0 0 1-10.4-4.3c-2.7-3.4-4-7.7-3.7-12 0-5 1.2-9 3.7-11.8a13 13 0 0 1 10.4-4.3c3.3 0 6 .8 8.2 2.5v-12.4h5.8v31.9c0 1.2.2 2 .6 2.6zm-7.8-1.3c1-2.2 1.4-4.5 1.4-7.1 0-3.2-.5-5.5-1.5-7s-2-2.5-3.2-2.9a14 14 0 0 0-3.5-.5c-3.6 0-5.9 1-6.9 3.3s-1.4 4.5-1.4 7c0 4.5.8 7.3 2.6 8.6a9.6 9.6 0 0 0 5.7 1.8c3.5 0 5.8-1 6.8-3.2zm27.4 13.3c-1.2 1.6-2.8 3-4.6 4a15 15 0 0 1-6.9 1.6V472a8 8 0 0 0 5.3-1.6c1.3-1 2.2-2.2 2.8-3.5L276 436.4h6.2l7.6 21.7 7.3-21.7h6.1l-10.6 31.5a15 15 0 0 1-2.4 4.3h-.2zm49.4-4.2a13 13 0 0 1-10.4-4.3c-2.7-3.4-4-7.7-3.7-12 0-5 1.3-9 3.7-11.8 2.5-2.8 6-4.3 10.4-4.3s7.9 1.5 10.4 4.3a18 18 0 0 1 3.7 11.9c0 5-1.3 9-3.7 11.9a13 13 0 0 1-10.4 4.2v.1zm0-26.6c-3.6 0-5.8 1-6.8 3.3-1 2.1-1.5 4.5-1.5 7 0 4.5.9 7.3 2.6 8.6a9.6 9.6 0 0 0 5.7 1.8c3.6 0 5.8-1 6.8-3.2s1.5-4.5 1.5-7.1c0-4.5-.9-7.3-2.6-8.5s-3.6-1.9-5.7-1.9zm28.5-12.6a3 3 0 0 0-1.6 1c-.3.6-.4 1.4-.4 2.6v4.1h5.4v5.8h-5.4V467H360v-24.8h-3.2v-5.8h3.2v-4.1c0-2.7.6-4.7 1.6-6.1a7 7 0 0 1 4-2.8c1.6-.5 3.5-.7 5.7-.7v5.8l-3.4.2v.1zm70.9 10.5c2.5 2.4 3.8 6.6 3.8 12.5v15.3h-5.8v-15.3c0-2.8-.3-5-1-6.6-.7-1.5-1.5-2.5-2.5-3a8 8 0 0 0-3.6-.7c-2 0-3.4.4-4.4 1.4s-1.7 2.2-2 3.6c-.4 1.5-.6 3.3-.6 5.3v15.3H417v-15.3c0-2.8-.3-5-1-6.6-.6-1.5-1.4-2.5-2.4-3a8 8 0 0 0-3.6-.7c-2 0-3.4.4-4.5 1.4-1 1-1.7 2.2-2 3.6-.4 1.5-.6 3.3-.6 5.3v15.3H397v-30.6h5.8v1c2-1.2 4.3-1.9 7-1.9 4-.2 7.7 1.6 10 4.7 2.3-3.1 6-5 9.9-4.7 3.6 0 6.6 1.2 9.1 3.7zm10.8-2.8h9.9v30.6h-5.8v-24.8h-4.1v-5.8zm6.6-6.3c1 0 2-.3 2.6-1 .8-.8 1.1-1.6 1.1-2.7 0-1-.3-1.9-1-2.6a4 4 0 0 0-2.7-1.1c-1 0-2 .4-2.6 1-.8.8-1.1 1.7-1.1 2.7s.3 2 1 2.7a4 4 0 0 0 2.7 1zm33.6 9c2.5 2.4 3.8 6.6 3.8 12.6v15.3h-5.8v-15.3c0-2.8-.4-5-1-6.6a5.5 5.5 0 0 0-2.5-3 8 8 0 0 0-3.5-.7c-2 0-3.5.4-4.5 1.4a7 7 0 0 0-2 3.6c-.4 1.5-.6 3.3-.6 5.3v15.3h-5.8v-30.6h5.8v1c2-1.2 4.3-1.9 7-1.9 3.6 0 6.6 1.2 9.1 3.6zm39 21c.4.5.9.8 1.5 1l3.1.1h.3v5.8c-2.1 0-4-.2-5.6-.6a7 7 0 0 1-3.8-2.5c-2.5 2.6-5.9 4-10 4a13 13 0 0 1-10.4-4.3c-2.7-3.4-4-7.7-3.7-12 0-5 1.2-9 3.7-11.8a13 13 0 0 1 10.3-4.3c3.4 0 6.1.8 8.3 2.5v-12.4h5.8v31.9c0 1.2.2 2 .5 2.6zm-7.8-1.3c1-2.2 1.5-4.5 1.5-7.1 0-3.2-.5-5.5-1.5-7s-2-2.5-3.2-2.9c-1.2-.3-2.4-.5-3.6-.5-3.5 0-5.8 1-6.8 3.3s-1.5 4.5-1.5 7c0 4.5.9 7.3 2.6 8.6a9.6 9.6 0 0 0 5.7 1.8c3.6 0 5.9-1 6.8-3.2zM909.6 561c.5.7 1.2 1.1 2 1.3.8.1 1.9.1 3.2 0h1v7.8a20 20 0 0 1-10.8-2.5c-2.7-1.7-4-5.1-4-10.1v-20.3h-4.3v-7.6h4.3v-14.3h7.7v14.3h7.1v7.6h-7.1v20.3c0 1.6.3 2.7.9 3.5zm44.2-27.9c3.3 3.1 5 8.7 5 16.7v20.3h-7.7v-20.3c0-3.7-.4-6.6-1.3-8.6-.8-2-2-3.4-3.3-4-1.3-.7-2.9-1-4.7-1-2.5 0-4.5.6-5.9 1.8a9.3 9.3 0 0 0-2.7 4.9 29 29 0 0 0-.7 7V570h-7.6v-54.8h7.6V531c2.6-1.7 5.7-2.6 9.3-2.6a17 17 0 0 1 12 4.7zm25.4 28.4c2.1 1.3 4.5 2 7 2 2.6 0 4.7-.3 6.1-.7a5.5 5.5 0 0 0 3.2-2.4l7.4 2.5a13 13 0 0 1-5.8 6.1 23.2 23.2 0 0 1-11 2.2c-5.8 0-10.4-2-13.7-5.7a23 23 0 0 1-4.9-15.7 23 23 0 0 1 5-15.7c3.2-3.8 7.8-5.7 13.6-5.7 5.9 0 10.4 2 13.7 5.7 3.4 3.8 5 9 5 15.7v2.8h-29.5c.4 4.7 1.7 7.6 3.9 9v-.1zm-.5-22.9a11.8 11.8 0 0 0-3 6.2h21c-.8-3.7-2.2-6-4.2-7.1-2-1-4.1-1.6-6.4-1.6-3.3 0-5.8.8-7.4 2.5zm88.5-7.4c2.9 1.8 5 4.4 6.4 7.7l-7.3 2.5c-.8-2-2.3-3.5-4.2-4.3-1.7-.7-3.4-1-5.1-1-4.7 0-7.7 1.4-9 4.3-1.4 2.8-2 6-2 9.4 0 5.8 1.1 9.6 3.4 11.2a13 13 0 0 0 13.3 1.2 9 9 0 0 0 3.4-3.5l7.3 2.5a16 16 0 0 1-6.4 7.4c-3 1.8-6.5 2.7-10 2.6-5.9 0-10.5-2-13.7-5.7-3.3-3.8-5-9-5-15.7a23 23 0 0 1 5-15.7 17 17 0 0 1 13.7-5.7c4 0 7.4 1 10.2 2.8zm43.8 1.9c3.3 3.1 5 8.7 5 16.7v20.3h-7.7v-20.3c0-3.7-.4-6.6-1.3-8.6-.8-2-2-3.4-3.3-4-1.3-.7-2.9-1-4.7-1-2.5 0-4.5.6-5.9 1.8a9.3 9.3 0 0 0-2.7 4.9 29 29 0 0 0-.7 7V570h-7.6v-54.8h7.6V531c2.6-1.7 5.7-2.6 9.3-2.6a17 17 0 0 1 12 4.7zm25.4 28.4a13 13 0 0 0 7 2c2.6 0 4.6-.3 6.1-.7a5.5 5.5 0 0 0 3.2-2.4l7.4 2.5a13 13 0 0 1-5.8 6.1 23.2 23.2 0 0 1-11 2.2c-5.8 0-10.4-2-13.7-5.7-3.3-3.8-5-9-5-15.7a23 23 0 0 1 5-15.7c3.3-3.8 7.9-5.7 13.7-5.7 5.9 0 10.4 2 13.7 5.7 3.3 3.8 5 9 5 15.7v2.8h-29.5c.4 4.7 1.7 7.6 3.9 9v-.1zm-.5-22.9a11.8 11.8 0 0 0-3 6.2h21c-.8-3.7-2.2-6-4.2-7.1-2-1-4.2-1.6-6.4-1.6-3.3 0-5.8.8-7.4 2.5zm77.8 37.9v7.7c-3.6 0-6.4-.5-8.6-1.4a10 10 0 0 1-4.7-4.6c-1-2.1-1.5-4.9-1.5-8.3v-2c-3 2.1-6.7 3.2-10.9 3.2-5.9 0-10.4-2-13.7-5.7-3.3-3.8-5-9-5-15.7a23 23 0 0 1 5-15.7c3.3-3.7 7.8-5.6 13.7-5.6 4.3 0 8 1 10.9 3.2v-2.2h7.7V570c0 3 .4 4.8 1.2 5.5.7.7 2.7 1.1 5.9 1.1v-.1zm-16.8-17.4c1.3-2.9 2-6 2-9.4 0-4.2-.7-7.3-2-9.3-1-1.7-2.4-3-4.2-3.7a16 16 0 0 0-4.7-.7c-4.7 0-7.7 1.4-9 4.3-1.3 2.9-2 6-2 9.4 0 4.1.7 7.2 2 9.3 1.3 2 2.7 3.2 4.2 3.7 1.6.4 3.2.7 4.8.7 4.6 0 7.6-1.5 9-4.3h-.1zm55.1 11h-7.7v-1.5c-2.7 1.8-6 2.7-9.2 2.6a17 17 0 0 1-12-4.7c-3.3-3.1-5-8.7-5-16.7v-20.3h7.6v20.3c0 3.7.4 6.6 1.3 8.7.8 2 2 3.3 3.3 4 1.3.6 2.9 1 4.8 1 2.5 0 4.5-.7 5.9-2a9 9 0 0 0 2.7-4.8c.4-2 .6-4.3.6-7v-20.2h7.7v40.6zm20.6-8.6a13 13 0 0 0 7 2c2.6 0 4.6-.3 6.1-.7a5.5 5.5 0 0 0 3.2-2.4l7.4 2.5a13 13 0 0 1-5.8 6.1 23.2 23.2 0 0 1-11 2.2c-5.8 0-10.4-2-13.7-5.7-3.3-3.8-5-9-5-15.7a23 23 0 0 1 5-15.7c3.3-3.8 7.9-5.7 13.7-5.7 5.9 0 10.4 2 13.7 5.7 3.3 3.8 5 9 5 15.7v2.8h-29.5c.4 4.7 1.7 7.6 3.9 9v-.1zm-.5-22.9a11.8 11.8 0 0 0-3 6.2h21c-.8-3.7-2.2-6-4.2-7.1-2-1-4.2-1.6-6.4-1.6-3.3 0-5.8.8-7.4 2.5z"/><path d="M83.9 120.2a14 14 0 0 1-6 4.6 21.7 21.7 0 0 1-8.7 1.6c-4 0-7.6-.9-10.5-2.6-2.8-1.6-5-4.2-6-7.3l6.5-2.1c.7 2 2 3.4 3.9 4.1 1.9.8 4 1.2 6.1 1.2a13 13 0 0 0 7.5-1.9c1.8-1.2 2.6-2.7 2.6-4.3 0-1.9-.8-3.4-2.6-4.6a49.3 49.3 0 0 0-8.7-4.4 86 86 0 0 1-8-3.7c-2-1.1-3.8-2.6-5.3-4.5-1.5-2-2.4-4.4-2.3-6.9 0-2.5.7-4.8 2.1-6.8a14 14 0 0 1 6-4.6 22 22 0 0 1 8.7-1.6c4.2 0 7.7.9 10.5 2.6 2.9 1.8 4.9 4.2 6 7.3l-6.4 2.2a7 7 0 0 0-4-4.2 16 16 0 0 0-6-1.2 13 13 0 0 0-7.6 1.9c-1.7 1.2-2.6 2.7-2.6 4.4 0 1.3.4 2.4 1.3 3.3.9 1 2 1.9 3.6 2.7 1.5.8 3.7 1.8 6.5 2.9a67 67 0 0 1 7.9 3.7 19 19 0 0 1 5.4 4.5 11 11 0 0 1 2.2 7c0 2.5-.7 4.7-2.1 6.7zm17.8-2.7c.5.6 1 1 1.8 1.1.7.1 1.6.2 2.8.1h.9v6.8c-4 0-7.2-.8-9.5-2.2-2.4-1.5-3.5-4.5-3.5-9V96.7h-3.9V90h3.9V77.4h6.7v12.5h6.3v6.7h-6.3v17.8c0 1.4.3 2.4.8 3v.1zm21.3.5c2 1 4 1.7 6.2 1.7 2.3 0 4.1-.2 5.4-.6 1.2-.3 2.2-1 2.8-2.1l6.5 2.1a11 11 0 0 1-5 5.4c-2.4 1.3-5.6 2-9.7 2a15 15 0 0 1-12-5c-3-3.4-4.4-8-4.4-13.9a20 20 0 0 1 4.3-13.7 15 15 0 0 1 12-5c5.2 0 9.2 1.7 12.1 5 3 3.3 4.4 7.9 4.4 13.7l-.1 2.5h-25.9c.4 4.1 1.6 6.7 3.5 7.9h-.1zm-.4-20.2a10.4 10.4 0 0 0-2.7 5.5h18.5c-.6-3.3-1.9-5.4-3.6-6.3-1.8-1-3.7-1.4-5.6-1.4-3 0-5.1.7-6.6 2.2zm64.4 27.7h-7l-7-23.8-7.1 23.8h-7l-9.7-35.6h7l6.3 23.3 6.9-23.3h7l7 23.3 6.2-23.3h7l-9.6 35.6zM248.2 93c2.7 2.6 4 6.3 4 10.8v21.7h-6.8v-2c-5.1 3-11.4 3.7-17 1.7a9.2 9.2 0 0 1-6-8.9c0-3 .9-5.7 2.7-7.8a14 14 0 0 1 7.7-4.1 42 42 0 0 1 12.7-.7c0-2.7-.8-4.7-2.2-6-1.4-1.4-3.4-2.1-6-2.1-3.8 0-6.3 1.4-7.5 4.3l-6.4-2.1c1-2.8 2.8-5 5.2-6.6 2.4-1.5 5.3-2.3 8.7-2.3 4-.2 8 1.3 10.9 4v.1zm-6.8 25.1c1.7-1 3-2 4-3.3v-4.4c-3.2-.5-7-.3-11.3.5-2 .5-3.3 1.2-4 2-.6 1-1 2.1-1 3.4 0 .9.5 1.7 1.3 2.3.8.7 2.3 1 4.5 1 2.6 0 4.8-.5 6.5-1.5zm45-25.1c2.9 2.9 4.3 7.7 4.3 14.7v17.8H284v-17.8c0-3.3-.3-5.9-1-7.6-.8-1.8-1.8-3-3-3.6a9.3 9.3 0 0 0-4-.8c-2.3 0-4 .5-5.3 1.6a8.2 8.2 0 0 0-2.4 4.3c-.4 1.7-.6 3.7-.6 6.1v17.8H261V89.9h6.7v1.2c2.3-1.4 5-2.2 8.2-2.2 4.1 0 7.7 1.4 10.6 4.2l-.1-.1zm45.2 24.4c.5.6 1 1 1.8 1.1l3.5.2h.4v6.8a25 25 0 0 1-6.5-.8 8 8 0 0 1-4.4-2.9c-3 3-6.9 4.6-11.7 4.6a15 15 0 0 1-12-5c-3-3.3-4.4-7.9-4.4-13.8 0-5.8 1.5-10.4 4.4-13.7a15 15 0 0 1 12-5c3.9 0 7 1 9.6 2.8V77.4h6.7v37c0 1.4.2 2.4.6 3zm-9-1.5c1.1-2.5 1.7-5.2 1.7-8.3 0-3.6-.6-6.3-1.8-8.1a7 7 0 0 0-3.7-3.3 14 14 0 0 0-4.1-.6c-4.1 0-6.8 1.3-8 3.8a19.6 19.6 0 0 0-1.7 8.2c0 5.2 1 8.4 3 9.9s4.3 2.2 6.7 2.2c4.1 0 6.7-1.3 7.9-3.8zm63.9-26.1-1.6 6.6a9 9 0 0 0-3.9-.7c-2.3 0-4 .5-5.2 1.6a8.2 8.2 0 0 0-2.4 4.3c-.4 1.7-.6 3.7-.6 6.1v17.8H366V89.9h6.7v1.2c2.3-1.4 5-2.2 8.2-2.2 2 0 4 .3 5.5 1l.1-.1zm35.1 35.7h-6.8v-1.3a14 14 0 0 1-8 2.2c-4.2 0-7.7-1.4-10.6-4-3-2.8-4.4-7.7-4.4-14.8V89.8h6.7v17.8c0 3.3.4 5.9 1.1 7.7.8 1.7 1.7 3 2.9 3.5 1.2.6 2.6.9 4.2.9 2.3 0 4-.6 5.2-1.7a8 8 0 0 0 2.4-4.3c.3-1.7.5-3.7.5-6v-18h6.8v35.8zm58.7-32.4c2.9 2.8 4.3 7.7 4.3 14.6v17.8H478v-17.8a20 20 0 0 0-1.1-7.6c-.8-1.8-1.8-3-3-3.6a9.3 9.3 0 0 0-4.1-.8c-2.3 0-4 .5-5.2 1.6a8 8 0 0 0-2.4 4.3c-.3 1.7-.5 3.7-.5 6.1v17.8h-6.8v-17.8a21 21 0 0 0-1.1-7.6c-.8-1.8-1.7-3-2.9-3.6a9.3 9.3 0 0 0-4.1-.8c-2.3 0-4 .5-5.3 1.6a7.9 7.9 0 0 0-2.4 4.3c-.4 1.7-.5 3.7-.5 6.1v17.8h-6.8V89.9h6.8v1.2c2.2-1.4 5-2.2 8.2-2.2 4.5-.2 8.8 1.9 11.5 5.5 1-1.6 2.6-2.9 4.4-4a15 15 0 0 1 7.1-1.5c4 0 7.8 1.5 10.6 4.2h-.1zM708 126.4c-4.5 0-8.2-1.4-10.8-4.1-2.7-2.8-4-6.5-4-11.3h6.7c0 2.9.7 5 2 6.5s3.4 2.2 6.1 2.2c2.8 0 4.8-.8 6.2-2.2 1.3-1.5 2-3.6 2-6.5V77.4h6.8V111c0 4.8-1.3 8.5-4 11.3-3 2.9-7 4.4-11 4.1zM757 93c2.7 2.6 4 6.3 4 10.8v21.7h-6.8v-2c-5.1 3-11.4 3.7-17 1.7-2-.9-3.4-2-4.4-3.6a9.1 9.1 0 0 1-1.6-5.3c0-3 1-5.7 2.7-7.8s4.4-3.4 7.7-4.1a42 42 0 0 1 12.7-.7c0-2.7-.8-4.7-2.1-6a8.3 8.3 0 0 0-6-2.1c-3.9 0-6.4 1.4-7.6 4.3l-6.4-2.1c1-2.8 2.8-5 5.2-6.6 2.4-1.5 5.3-2.3 8.7-2.3 4-.2 8 1.3 10.9 4v.1zm-6.8 25.1c1.7-1 3-2 4-3.3v-4.4c-3.2-.5-7-.3-11.3.5-2 .5-3.3 1.2-4 2-.6 1-1 2.1-1 3.4 0 .9.5 1.7 1.3 2.3s2.3 1 4.5 1c2.6 0 4.8-.5 6.5-1.5zM798 93.8c3 3.3 4.4 7.9 4.4 13.8a20 20 0 0 1-4.3 13.7 15 15 0 0 1-12 5c-3.8 0-7-.9-9.7-2.8V138h-6.7V89.8h6.7v1.8c2.8-2 6.2-3 9.7-2.8a15 15 0 0 1 12 5h-.1zm-4 22c1-2.5 1.6-5.3 1.6-8.2 0-3.7-.5-6.4-1.7-8.2a7.6 7.6 0 0 0-3.7-3.3 14 14 0 0 0-4.1-.6c-4.2 0-6.8 1.3-8 3.8a19.6 19.6 0 0 0-1.7 8.3c0 5 1 8.4 3 9.8a11 11 0 0 0 6.7 2.2c4 0 6.7-1.3 7.8-3.8h.1zM833.7 93c2.6 2.6 4 6.3 4 10.8v21.7h-6.8v-2c-5.1 3-11.4 3.7-17 1.7-2-.9-3.4-2-4.5-3.6a9.1 9.1 0 0 1-1.5-5.3c0-3 .9-5.7 2.7-7.8s4.4-3.4 7.7-4.1a42 42 0 0 1 12.7-.7c0-2.7-.8-4.7-2.2-6-1.4-1.4-3.4-2.1-6-2.1-3.8 0-6.3 1.4-7.5 4.3l-6.4-2.1c1-2.8 2.8-5 5.2-6.6 2.4-1.5 5.3-2.3 8.7-2.3 4.5 0 8.2 1.4 10.9 4v.1zm-6.8 25.1c1.7-1 3-2 4-3.3v-4.4c-3.2-.5-7-.3-11.3.5-2 .5-3.3 1.2-4 2-.6 1-1 2.1-1 3.4 0 .9.5 1.7 1.3 2.3s2.3 1 4.5 1c2.6 0 4.8-.5 6.5-1.5zm45-25.1c2.9 2.9 4.3 7.7 4.3 14.7v17.8h-6.8v-17.8c0-3.3-.3-5.9-1-7.6-.8-1.8-1.8-3-3-3.6a9.3 9.3 0 0 0-4-.8c-2.4 0-4 .5-5.3 1.6a8.2 8.2 0 0 0-2.4 4.3c-.4 1.7-.6 3.7-.6 6.1v17.8h-6.7V89.9h6.7v1.2c2.3-1.4 5-2.2 8.2-2.2 4 0 7.8 1.5 10.6 4.2V93zm35.5-3h11.5v35.5h-6.7V96.6h-4.8V90zm7.7-7.4a4.2 4.2 0 0 0 4.3-4.3c0-1.2-.4-2.2-1.3-3a4.2 4.2 0 0 0-3-1.3c-1.2 0-2.2.4-3 1.3-1 .8-1.3 1.8-1.3 3s.4 2.2 1.2 3c.9 1 1.9 1.3 3 1.3h.1zm39 10.4c3 2.9 4.4 7.7 4.4 14.7v17.8h-6.8v-17.8c0-3.3-.3-5.9-1-7.6-.8-1.8-1.8-3-3-3.6a9.3 9.3 0 0 0-4.1-.8c-2.3 0-4 .5-5.2 1.6a8.2 8.2 0 0 0-2.4 4.3c-.4 1.7-.6 3.7-.6 6.1v17.8h-6.7V89.9h6.7v1.2c2.2-1.4 5-2.2 8.2-2.2 4.1 0 7.6 1.4 10.5 4.2V93zm45.1 24.5c.5.6 1.1 1 1.8 1.1s1.6.2 2.8.1h1v6.8c-4 0-7.2-.8-9.6-2.2-2.3-1.5-3.5-4.5-3.5-9V96.7h-3.8V90h3.8V77.4h6.8v12.5h6.2v6.7h-6.2v17.8c0 1.4.2 2.4.7 3v.1zM1038 93c3 2.7 4.5 7.6 4.5 14.7v17.8h-6.8v-17.8a21 21 0 0 0-1.1-7.6c-.8-1.8-1.7-3-3-3.6a9.3 9.3 0 0 0-4-.8c-2.3 0-4 .5-5.2 1.6a8.2 8.2 0 0 0-2.4 4.3c-.5 1.7-.7 3.7-.7 6.1v17.8h-6.7V77.4h6.7V91c2.3-1.4 5-2.2 8.3-2.2 4 0 7.5 1.4 10.4 4.1v.1zm22.3 25c2 1 4 1.7 6.1 1.7 2.4 0 4.2-.2 5.5-.6a5 5 0 0 0 2.8-2.1l6.5 2.1c-1 2.4-2.8 4.1-5 5.4-2.4 1.3-5.6 2-9.8 2a15 15 0 0 1-12-5c-2.9-3.4-4.3-8-4.3-13.9a20 20 0 0 1 4.3-13.7 15 15 0 0 1 12-5c5.2 0 9.2 1.7 12 5 3 3.3 4.4 7.9 4.4 13.7v2.5h-25.9c.4 4.1 1.5 6.7 3.4 7.9zm-.4-20.2a10.4 10.4 0 0 0-2.7 5.5h18.5c-.7-3.3-1.9-5.4-3.7-6.3-1.7-1-3.6-1.4-5.6-1.4-2.9 0-5 .7-6.5 2.2zm87.4 27.7h-7l-7-23.8-7.1 23.8h-7l-9.6-35.6h7l6.2 23.3 7-23.3h7l6.9 23.3 6.2-23.3h7l-9.6 35.6zm12.9-35.5h11.5v35.5h-6.7V96.6h-4.8V90zm7.7-7.4a4.2 4.2 0 0 0 4.3-4.3c0-1.2-.4-2.2-1.3-3a4.2 4.2 0 0 0-3-1.3c-1.2 0-2.2.4-3 1.3-1 .8-1.3 1.8-1.3 3s.4 2.2 1.2 3c.9 1 1.9 1.3 3 1.3h.1zM1207 93c2.8 2.9 4.3 7.7 4.3 14.7v17.8h-6.8v-17.8c0-3.3-.3-5.9-1-7.6-.8-1.8-1.8-3-3-3.6a9.3 9.3 0 0 0-4.1-.8c-2.3 0-4 .5-5.2 1.6a8.2 8.2 0 0 0-2.4 4.3c-.4 1.7-.6 3.7-.6 6.1v17.8h-6.7V89.9h6.7v1.2c2.2-1.4 5-2.2 8.2-2.2 4.1 0 7.6 1.4 10.5 4.2l.1-.1zm22 24.5c.5.6 1 1 1.8 1.1.7.1 1.6.2 2.7.1h1v6.8c-4 0-7.2-.8-9.5-2.2-2.4-1.5-3.6-4.5-3.6-9V96.7h-3.8V90h3.8V77.4h6.8v12.5h6.3v6.7h-6.3v17.8c0 1.4.3 2.4.8 3v.1zm21.3.5c2 1 4 1.7 6.1 1.7 2.4 0 4.2-.2 5.5-.6a5 5 0 0 0 2.8-2.1l6.5 2.1c-1 2.4-2.8 4.1-5 5.4-2.4 1.3-5.6 2-9.8 2a15 15 0 0 1-12-5c-2.9-3.4-4.3-8-4.3-13.9a20 20 0 0 1 4.3-13.7 15 15 0 0 1 12-5c5.2 0 9.2 1.7 12 5 3 3.3 4.4 7.9 4.4 13.7v2.5h-25.9c.4 4.1 1.6 6.7 3.4 7.9zm-.4-20.2a10.4 10.4 0 0 0-2.7 5.5h18.5c-.7-3.3-1.9-5.4-3.7-6.3-1.7-1-3.6-1.4-5.6-1.4-2.9 0-5 .7-6.5 2.2zm52.1-8-1.6 6.6a9 9 0 0 0-4-.7c-2.2 0-4 .5-5.1 1.6a8.2 8.2 0 0 0-2.4 4.3c-.4 1.7-.6 3.7-.6 6.1v17.8h-6.7V89.9h6.7v1.2c2.3-1.4 5-2.2 8.2-2.2 2 0 3.9.3 5.5 1v-.1zm11.7 32.2a4.2 4.2 0 0 1-4.3 4.3 4 4 0 0 1-3-1.2 4.2 4.2 0 0 1-1.3-3c0-1.3.4-2.3 1.3-3.1.8-.9 1.8-1.3 3-1.3s2.2.4 3 1.3c1 .8 1.3 1.8 1.3 3zM83.2 431.5H69.5l-.1 35.6h-5.8v-35.6H50.2v-5.8h33v5.8zm26.8 7.7c2.5 2.3 3.8 6.5 3.8 12.6v15.3H108v-15.3c0-2.8-.4-5-1-6.6a5.5 5.5 0 0 0-2.5-3 8 8 0 0 0-3.5-.7c-2 0-3.5.4-4.5 1.4a7 7 0 0 0-2 3.6c-.4 1.5-.6 3.3-.6 5.3v15.3H88v-41.4h6v11.9c2-1.3 4.3-2 7-2 3.5 0 6.5 1.2 9 3.6zm19.2 21.5a10 10 0 0 0 5.2 1.4c2 0 3.6-.2 4.7-.5s2-1 2.5-1.8l5.5 1.9c-.9 2-2.3 3.5-4.3 4.6a19 19 0 0 1-8.4 1.6 13 13 0 0 1-10.3-4.2c-2.7-3.4-4-7.7-3.7-12 0-5 1.2-9 3.7-11.8a13 13 0 0 1 10.3-4.3 13 13 0 0 1 10.4 4.3c2.5 2.9 3.8 6.8 3.8 11.9v2h-22.4c.4 3.6 1.4 5.9 3 6.9zm-.4-17.4a9 9 0 0 0-2.3 4.7h16c-.6-2.8-1.7-4.6-3.2-5.4-1.6-.8-3.2-1.2-4.9-1.2-2.5 0-4.4.6-5.6 2v-.1zm457.9 23.8h-6l-6.1-20.4-6.1 20.4h-6l-8.3-30.6h6l5.4 20 6-20h6l6 20 5.3-20h6l-8.2 30.6zm32.8-28c2.3 2.3 3.5 5.4 3.5 9.4V467h-5.8v-1.6c-4.5 2.7-10 3.2-14.8 1.4a8.7 8.7 0 0 1-3.8-3c-.9-1.4-1.4-3-1.3-4.6 0-2.7.8-5 2.4-6.8 1.5-1.8 3.7-3 6.5-3.5 4-.8 7.7-1 11-.7 0-2.2-.6-4-1.8-5.1-1.2-1.2-3-1.8-5.2-1.8-3.3 0-5.5 1.2-6.5 3.7l-5.5-1.8c.9-2.4 2.4-4.3 4.4-5.6 2.1-1.4 4.6-2 7.6-2 3.9 0 7 1 9.3 3.4v.1zm-5.8 21.7c1.5-.9 2.6-1.8 3.5-2.8v-3.8c-2.9-.5-6.1-.3-9.8.4-1.7.4-2.9 1-3.4 1.8a5 5 0 0 0-.9 2.9c0 .7.4 1.4 1.1 2 .7.5 2 .8 3.9.8 2.2 0 4.1-.4 5.6-1.3zm32.6-10.5c1.5.6 2.8 1.5 4 2.8 1 1.2 1.6 3 1.6 5.3 0 1.9-.5 3.6-1.5 5a10 10 0 0 1-4.2 3.3c-4 1.6-8.5 1.6-12.5-.1-2.2-.9-4.1-2.3-5.6-4.2l4.8-3.3c1.9 1.8 4.4 3 7 3 2.5 0 4.2-.4 5-1.3.8-.8 1.2-1.6 1.2-2.4s-.2-1.3-.5-1.7a4 4 0 0 0-1.8-1.1c-.9-.3-2.2-.7-4-1h-.1c-2-.4-3.8-.8-5.3-1.4-1.6-.6-3-1.5-4-2.8a7.9 7.9 0 0 1-1.7-5.3c0-1.8.5-3.5 1.5-5a11 11 0 0 1 4-3.3 13 13 0 0 1 5.8-1.2c1.8 0 3.8.5 6 1.4 2.3.9 4.2 2.3 5.8 4.2l-4.9 3.2c-.8-1-1.9-1.7-3.2-2.2-1.4-.5-2.6-.8-3.7-.8s-2.3.3-3.6.7c-1.3.5-1.9 1.5-1.9 3 0 .8.2 1.3.5 1.8.3.4 1 .7 1.8 1 1 .4 2.3.7 4.1 1 2.2.4 4 .9 5.4 1.4zm51.9-11.2c2.3 2.3 3.5 5.4 3.5 9.4l-.1 18.6h-5.8v-1.6a17.3 17.3 0 0 1-14.7 1.4 8.7 8.7 0 0 1-3.8-3c-.9-1.4-1.4-3-1.3-4.6 0-2.7.8-5 2.3-6.8 1.6-1.8 3.8-3 6.6-3.5 4-.8 7.7-1 11-.7 0-2.2-.7-4-1.9-5.1-1.2-1.2-2.9-1.8-5.2-1.8-3.2 0-5.4 1.2-6.4 3.7l-5.5-1.8c.9-2.4 2.4-4.3 4.4-5.6 2-1.4 4.6-2 7.5-2 4 0 7 1 9.4 3.4zm-5.8 21.7c1.4-.9 2.6-1.8 3.4-2.8v-3.8c-2.8-.5-6-.3-9.7.4-1.7.4-2.9 1-3.4 1.8a5 5 0 0 0-.9 2.9c0 .7.4 1.4 1 2 .8.5 2 .8 4 .8 2.2 0 4-.4 5.6-1.3zm27.9.5v5.8c-2.2 0-4-.2-5.7-.6-1.6-.5-3-1.5-3.9-2.8-1-1.4-1.5-3.5-1.5-6.1v-31.9h5.7v31.9c0 1.1.2 2 .7 2.6.4.5 1 .9 1.6 1l2.5.1h.6zm33.4 5.8h-6l-6-20.4-6.1 20.4h-6l-8.3-30.6h6l5.4 20 6-20h6l6 20 5.3-20h6l-8.3 30.6zm32.9-28c2.3 2.3 3.5 5.4 3.5 9.4V467h-5.9v-1.6a17.3 17.3 0 0 1-14.7 1.4 8.7 8.7 0 0 1-3.8-3c-.9-1.4-1.4-3-1.3-4.6 0-2.7.8-5 2.4-6.8 1.5-1.8 3.7-3 6.5-3.5 4-.8 7.7-1 11-.7 0-2.2-.7-4-1.9-5.1-1.2-1.2-2.9-1.8-5.2-1.8-3.2 0-5.4 1.2-6.4 3.7l-5.5-1.8c.9-2.4 2.4-4.3 4.4-5.6 2.1-1.4 4.6-2 7.5-2 4 0 7 1 9.4 3.4v.1zm-5.8 21.7c1.5-.9 2.6-1.8 3.4-2.8v-3.8c-2.8-.5-6-.3-9.7.4-1.7.4-2.9 1-3.4 1.8a5 5 0 0 0-.9 2.9c0 .7.4 1.4 1 2 .8.5 2 .8 4 .8 2.2 0 4-.4 5.6-1.3zm26.6 11.4c-1.2 1.6-2.8 3-4.6 4-2 1-4.3 1.6-6.9 1.6V472c2.2 0 4-.6 5.3-1.6s2.2-2.2 2.8-3.5l-10.8-30.5h6.2l7.7 21.7 7.3-21.7h6.1l-10.7 31.5a15 15 0 0 1-2.4 4.3zm33.3-21.9c1.5.6 2.8 1.5 3.9 2.8 1.1 1.2 1.7 3 1.7 5.3 0 1.9-.5 3.6-1.5 5a10 10 0 0 1-4.3 3.3c-4 1.6-8.4 1.6-12.4-.1-2.2-.9-4.1-2.3-5.7-4.2l4.9-3.3c.8 1 2 1.7 3.3 2.2 1.3.6 2.6.8 3.7.8 2.5 0 4.2-.4 5-1.3.8-.8 1.2-1.6 1.2-2.4s-.2-1.3-.5-1.7a4 4 0 0 0-1.8-1.1 28 28 0 0 0-4-1h-.2c-2-.4-3.8-.8-5.3-1.4a7.9 7.9 0 0 1-5.6-8.1c0-1.8.5-3.5 1.4-5a12 12 0 0 1 4-3.3c1.7-.8 3.6-1.2 5.8-1.2 1.9 0 3.9.5 6.1 1.4s4.2 2.3 5.7 4.2l-4.8 3.2c-.8-1-2-1.7-3.3-2.2s-2.5-.8-3.7-.8-2.3.3-3.5.7-2 1.5-2 3c0 .8.2 1.3.6 1.8.3.4 1 .7 1.8 1 .9.4 2.2.7 4 1 2.2.4 4 .9 5.5 1.4zm38.3 9.9c.4.6 1 1 1.6 1l2.3.1h.9v5.8c-3.5 0-6.2-.6-8.2-1.9s-3-3.8-3-7.6v-15.3h-3.4v-5.8h3.3v-10.8h5.9v10.8h5.4v5.8h-5.4v15.3c0 1.2.2 2 .6 2.6zm33.4-21c2.6 2.3 3.8 6.5 3.8 12.6v15.3h-5.8v-15.3c0-2.8-.3-5-1-6.6-.6-1.5-1.4-2.5-2.4-3a8 8 0 0 0-3.6-.7c-2 0-3.4.4-4.5 1.4a7 7 0 0 0-2 3.6c-.4 1.5-.6 3.3-.6 5.3v15.3h-5.7v-41.4h5.7v11.9c2-1.3 4.4-2 7.1-2 3.5 0 6.5 1.2 9 3.6zm19.2 21.5a10 10 0 0 0 5.3 1.4c2 0 3.6-.2 4.7-.5 1-.3 1.9-1 2.4-1.8l5.6 1.9c-1 2-2.4 3.5-4.4 4.6s-4.8 1.6-8.3 1.6a13 13 0 0 1-10.4-4.2c-2.7-3.4-4-7.7-3.7-12 0-5 1.3-9 3.7-11.8 2.5-2.8 6-4.3 10.4-4.3s7.9 1.5 10.4 4.3c2.5 2.9 3.7 6.8 3.7 11.9v2h-22.3c.3 3.6 1.3 5.9 3 6.9h-.1zm-.3-17.4a9 9 0 0 0-2.4 4.7h16c-.6-2.8-1.6-4.6-3.2-5.4a10 10 0 0 0-4.8-1.2c-2.5 0-4.4.6-5.6 2v-.1zm62.9 7c1.5.6 2.8 1.5 4 2.8 1 1.2 1.6 3 1.6 5.3 0 1.9-.5 3.6-1.5 5a10 10 0 0 1-4.3 3.3c-4 1.6-8.4 1.6-12.4-.1-2.2-.9-4.1-2.3-5.7-4.2l4.9-3.3c.8 1 2 1.7 3.3 2.2 1.3.6 2.6.8 3.7.8 2.5 0 4.2-.4 5-1.3.8-.8 1.2-1.6 1.2-2.4s-.2-1.3-.5-1.7a4 4 0 0 0-1.8-1.1 28 28 0 0 0-4-1h-.2c-2-.4-3.8-.8-5.3-1.4a9.5 9.5 0 0 1-3.9-2.8 7.9 7.9 0 0 1-1.7-5.3c0-1.8.5-3.5 1.5-5 .9-1.3 2.2-2.4 4-3.3a13 13 0 0 1 5.7-1.2c1.9 0 3.9.5 6.2 1.4s4.1 2.3 5.6 4.2l-4.8 3.2c-.8-1-2-1.7-3.3-2.2s-2.5-.8-3.7-.8-2.3.3-3.5.7-2 1.5-2 3c0 .8.3 1.3.6 1.8.3.4 1 .7 1.8 1 .9.4 2.3.7 4 1 2.2.4 4 .9 5.5 1.4zm18.7 10.4a10 10 0 0 0 5.2 1.4c2 0 3.6-.2 4.7-.5 1-.3 1.9-1 2.4-1.8l5.6 1.9c-.9 2-2.4 3.5-4.4 4.6s-4.7 1.6-8.3 1.6a13 13 0 0 1-10.4-4.2c-2.7-3.4-4-7.7-3.7-12 0-5 1.3-9 3.7-11.8 2.5-2.8 6-4.3 10.4-4.3s7.9 1.5 10.4 4.3c2.5 2.9 3.7 6.8 3.7 11.9v2h-22.3c.4 3.6 1.3 5.9 3 6.9zm-.4-17.4a9 9 0 0 0-2.3 4.7h15.9c-.6-2.8-1.6-4.6-3.2-5.4a10 10 0 0 0-4.8-1.2c-2.5 0-4.4.6-5.6 2v-.1zm47.1-5.6c2.1 1.3 3.7 3.3 4.8 5.9l-5.5 1.8a6 6 0 0 0-3.2-3.3c-1.2-.4-2.5-.7-3.9-.7-3.5 0-5.8 1-6.8 3.3-1 2.1-1.5 4.5-1.5 7 0 4.5.9 7.3 2.6 8.6a9.6 9.6 0 0 0 5.7 1.8c1.8 0 3.3-.3 4.4-1 1-.6 2-1.5 2.6-2.6l5.4 1.9c-1 2.4-2.6 4.3-4.8 5.6a14 14 0 0 1-7.6 2 13 13 0 0 1-10.3-4.3c-2.7-3.4-4-7.7-3.7-12 0-5 1.2-9 3.7-11.8a13 13 0 0 1 10.3-4.3c3 0 5.6.7 7.8 2v.1zm23.3 30.3a13 13 0 0 1-10.4-4.3c-2.7-3.4-4-7.7-3.7-12 0-5 1.3-9 3.7-11.8 2.5-2.8 6-4.3 10.4-4.3s7.9 1.5 10.3 4.3c2.5 2.9 3.8 6.8 3.8 11.9 0 5-1.3 9-3.8 11.9a13 13 0 0 1-10.3 4.2v.1zm0-26.6c-3.6 0-5.8 1-6.8 3.3-1 2.1-1.5 4.5-1.5 7 0 4.5.9 7.3 2.6 8.6a9.6 9.6 0 0 0 5.7 1.8c3.5 0 5.8-1 6.8-3.2s1.5-4.5 1.5-7.1c0-4.5-.9-7.3-2.6-8.5a9.6 9.6 0 0 0-5.7-1.9zm42.7-2.2c2.5 2.4 3.7 6.6 3.7 12.6v15.3h-5.8v-15.3c0-2.8-.3-5-1-6.6-.6-1.5-1.4-2.5-2.4-3a8 8 0 0 0-3.6-.7c-2 0-3.4.4-4.5 1.4a7 7 0 0 0-2 3.6c-.4 1.5-.6 3.3-.6 5.3v15.3h-5.7v-30.6h5.7v1c2-1.2 4.3-1.9 7.1-1.9 3.6 0 6.6 1.2 9 3.6h.1zm39 21c.3.5.8.8 1.5 1s1.6.1 3 .1h.3v5.8c-2.1 0-4-.2-5.6-.6a7 7 0 0 1-3.8-2.5c-2.5 2.6-5.8 4-10 4a13 13 0 0 1-10.4-4.3c-2.7-3.4-4-7.7-3.7-12 0-5 1.2-9 3.7-11.8a13 13 0 0 1 10.4-4.3c3.3 0 6 .8 8.2 2.5v-12.4h5.8v31.9c0 1.2.2 2 .6 2.6zm-7.8-1.3c1-2.2 1.4-4.5 1.4-7.1a13 13 0 0 0-1.5-7c-1-1.6-2-2.5-3.2-2.9-1.1-.3-2.3-.5-3.5-.5-3.6 0-5.9 1-6.8 3.3-1 2.1-1.5 4.5-1.5 7 0 4.5.8 7.3 2.6 8.6a9.6 9.6 0 0 0 5.7 1.8c3.5 0 5.8-1 6.8-3.2zm61.9-18.9a17 17 0 0 1 3.8 11.8c0 5-1.3 9-3.8 11.9a13 13 0 0 1-10.3 4.2c-3.2 0-6-.8-8.3-2.4v1.6h-5.9v-41.4h5.9v12.4c2.2-1.7 5-2.5 8.3-2.5a13 13 0 0 1 10.3 4.3v.1zm-3.5 18.9c1-2.2 1.4-4.5 1.4-7.1a13 13 0 0 0-1.5-7c-1-1.6-2-2.5-3.2-2.9-1.1-.3-2.3-.5-3.5-.5-3.6 0-5.8 1-6.8 3.3s-1.5 4.5-1.5 7c0 4.5.8 7.3 2.6 8.6a9.6 9.6 0 0 0 5.7 1.8c3.5 0 5.8-1 6.8-3.2zm20.8 1.8a10 10 0 0 0 5.2 1.4c2 0 3.6-.2 4.7-.5s2-1 2.5-1.8l5.5 1.9c-.9 2-2.3 3.5-4.3 4.6s-4.8 1.6-8.4 1.6a13 13 0 0 1-10.3-4.2c-2.7-3.4-4-7.7-3.7-12 0-5 1.2-9 3.7-11.8s6-4.3 10.3-4.3 8 1.5 10.4 4.3c2.5 2.9 3.8 6.8 3.8 11.9v2H1233c.3 3.6 1.3 5.9 2.9 6.9h.1zm-.4-17.4a9 9 0 0 0-2.3 4.7h16c-.6-2.8-1.7-4.6-3.2-5.4-1.6-.8-3.2-1.2-4.9-1.2-2.5 0-4.4.6-5.6 2v-.1zm43.1 7c1.5.6 2.8 1.5 4 2.8 1 1.2 1.6 3 1.6 5.3 0 1.9-.5 3.6-1.5 5a10 10 0 0 1-4.2 3.3 16 16 0 0 1-18.1-4.3l4.8-3.3c1.9 1.8 4.4 3 7 3 2.5 0 4.2-.4 5-1.3.8-.8 1.2-1.6 1.2-2.4s-.2-1.3-.5-1.7a4 4 0 0 0-1.8-1.1 28 28 0 0 0-4-1h-.1c-2-.4-3.8-.8-5.3-1.4-1.6-.6-3-1.5-4-2.8a7.9 7.9 0 0 1-1.7-5.3c0-1.8.5-3.5 1.5-5a11 11 0 0 1 4-3.3 13 13 0 0 1 5.8-1.2c1.8 0 3.8.5 6 1.4s4.2 2.3 5.7 4.2l-4.8 3.2c-.8-1-2-1.7-3.3-2.2s-2.5-.8-3.6-.8-2.3.3-3.6.7-1.9 1.5-1.9 3c0 .8.2 1.3.5 1.8.3.4 1 .7 1.8 1 1 .4 2.3.7 4 1 2.2.4 4 .9 5.5 1.4zm18.5 9.9c.4.6 1 1 1.5 1l2.4.1h.8v5.8c-3.4 0-6.1-.6-8.1-1.9s-3-3.8-3-7.6v-15.3h-3.4v-5.8h3.3v-10.8h5.8v10.8h5.4v5.8h-5.4v15.3c0 1.2.3 2 .7 2.6zm17 4a4 4 0 0 1-1 2.6 4 4 0 0 1-2.7 1c-1 0-2-.3-2.6-1-.8-.7-1.1-1.6-1.1-2.6s.3-2 1-2.7a4 4 0 0 1 2.7-1c1 0 1.9.3 2.6 1s1.1 1.6 1.1 2.7zM141.8 275.9c6.8 2.6 13 6.9 17.7 12.4a35 35 0 0 1 7.8 24.2c0 8.7-2.3 16.2-7 22.7a45.8 45.8 0 0 1-19.2 15.3c-9 3.8-18.7 5.7-28.5 5.5-8.5 0-17.8-2-28-6.1a61.5 61.5 0 0 1-25.9-19l22-15a47 47 0 0 0 31.9 13.5c11.5 0 19-1.9 22.7-5.7 3.7-3.9 5.5-7.6 5.5-11.2 0-3.4-.8-6-2.3-7.9-2.2-2.3-5-4-8.1-4.9-4-1.4-10.1-2.9-18.4-4.4h-.5a146 146 0 0 1-24.1-6.3 43 43 0 0 1-18-12.7c-5-6-7.6-14-7.6-24.1 0-8.5 2.2-16 6.5-22.4a43 43 0 0 1 18-15.3A61 61 0 0 1 113 209c8.2 0 17.5 2 27.7 6.1a61.7 61.7 0 0 1 25.9 19l-22 15c-3.8-4.5-8.7-8-14.8-10.3a43 43 0 0 0-33-.2c-5.8 2.3-8.6 6.8-8.6 13.6 0 3.4.7 6 2.2 7.9a19 19 0 0 0 8.3 5c4 1.3 10.2 2.8 18.5 4.3 9.8 1.9 18 4 24.7 6.5h-.1zm98.5 99.7a68.7 68.7 0 0 1-21.1 17.7c-8.9 5-19.3 7.5-31.3 7.5v-26.5c8.6.5 17-2 24-7.2 5.8-4.8 10.1-10 13-15.7l-49.1-139H204l34.6 99 33.3-99h28L251.2 356c-2 6.2-5.7 12.7-11 19.6h.1zm179-150.2c11.3 10.9 17 30 17 57.2v69.7h-26.5v-69.7c0-13-1.4-22.9-4.4-29.9-2.9-6.9-6.6-11.5-11.2-13.8-4.6-2.2-10-3.4-16.2-3.4-8.9 0-15.7 2.2-20.4 6.5a32 32 0 0 0-9.4 16.7c-1.6 6.7-2.4 14.7-2.4 24v69.6h-26.2V213h26.2v4.8A58 58 0 0 1 378 209c16.1 0 29.9 5.5 41.3 16.4zm87.1 97.4a45.8 45.8 0 0 0 23.8 6.7c9.2 0 16.3-.8 21.3-2.3a19 19 0 0 0 11.2-8.2l25.3 8.5c-4 9-10.7 16-19.8 21a80 80 0 0 1-38 7.5c-20 0-35.8-6.5-47-19.5-11.3-13-17-31-17-54.1 0-23 5.7-41 17-53.9 11.2-13 27-19.5 47-19.5 20.1 0 35.9 6.5 47.3 19.5 11.3 13 17 31 17 53.9 0 3.2 0 6.4-.3 9.5H493c1.5 16.2 6 26.5 13.4 31v-.1zm-1.7-78.8c-5.5 5.8-9 13-10.6 21.4h72.5c-2.6-12.7-7.4-21-14.4-24.6-7-3.7-14.3-5.5-22-5.5-11.4 0-20 2.9-25.5 8.7zm204-31.3-6.4 25.7c-4-2-9-2.9-15.3-2.9-8.8 0-15.6 2.2-20.3 6.5a32 32 0 0 0-9.4 16.7c-1.6 6.7-2.4 14.7-2.4 24v69.6h-26.2V213h26.2v4.8A58 58 0 0 1 687 209c8.1 0 15.3 1.3 21.7 3.7zM832 387c-11.3 13-27 19.4-47.1 19.4a65.7 65.7 0 0 1-32.9-7.9 55.1 55.1 0 0 1-21.8-22.8l25.6-8.5c4 5.5 8.5 9 13.6 10.5 5 1.5 10.2 2.2 15.5 2.2 12.8 0 21.9-3.4 27.3-10.3 5.5-6.8 8.8-15 9.9-24.6-11 7.3-24 11-37.2 10.7a59 59 0 0 1-47-19.6c-11.4-13-17-31-17-54s5.6-41 16.9-53.9c11.3-13 27-19.4 47-19.4 15.1 0 27.7 3.6 37.9 11v-7.4h26.2v120.4c0 23.2-5.6 41.2-17 54.2h.1zm-16.1-72.6a76.7 76.7 0 0 0 6.8-32.3c0-20.1-4-33-11.9-38.7a43.7 43.7 0 0 0-26-8.4c-15.9 0-26.1 5-30.7 14.8a76.7 76.7 0 0 0-6.7 32.3c0 14.3 2.2 24.9 6.7 31.8 4.6 7 9.4 11.3 14.7 12.9a55 55 0 0 0 16 2.4c16.2 0 26.6-5 31.1-14.8zM881.3 213h45.1v139.3h-26.2v-113h-18.9V213zm30.2-28.5a16 16 0 0 0 12-5 16 16 0 0 0 5-12c0-4.6-1.7-8.6-5-11.9-3.3-3.3-7.3-5-12-5s-8.7 1.7-12 5-5 7.3-5 12 1.7 8.7 5 12 7.3 5 12 5v-.1zm125.3 91.4c6.9 2.6 13 6.8 17.8 12.4a35 35 0 0 1 7.8 24.2c0 8.7-2.3 16.2-7 22.7-5 6.8-11.6 12-19.3 15.3-9 3.8-18.7 5.7-28.4 5.5a76 76 0 0 1-28.1-6.1c-10.1-4-19-10.5-25.8-19l22-15a47 47 0 0 0 31.9 13.5c11.4 0 19-1.9 22.7-5.7 3.6-3.9 5.5-7.6 5.5-11.2 0-3.4-.8-6-2.3-7.9a18 18 0 0 0-8.2-4.9c-4-1.4-10-2.9-18.3-4.4h-.6a148 148 0 0 1-24-6.3 43 43 0 0 1-18-12.7c-5-6-7.6-14-7.6-24.1 0-8.5 2.2-16 6.5-22.4a43 43 0 0 1 18-15.3 61 61 0 0 1 26.5-5.5c8.3 0 17.6 2 27.8 6.1 10.1 4 19 10.5 25.8 19l-22 15c-3.7-4.5-8.7-8-14.8-10.3-5.3-2.2-11-3.4-16.8-3.5-5 0-10.4 1-16.2 3.3-5.7 2.3-8.6 6.8-8.6 13.6 0 3.4.8 6 2.3 7.9a19 19 0 0 0 8.3 5c4 1.3 10.2 2.8 18.5 4.3 9.7 1.9 18 4 24.6 6.5zm244-50.4c11.3 11 17 30 17 57.1v69.7h-26.2v-69.7c0-13-1.5-22.9-4.5-29.9-3-6.9-6.8-11.5-11.4-13.8-4.6-2.2-10-3.4-16.2-3.4-8.9 0-15.6 2.2-20.3 6.5-4.8 4.5-8 10.3-9.3 16.7a105 105 0 0 0-2.3 24v69.6h-26.5v-69.7c0-13-1.5-22.9-4.4-29.9-2.9-6.9-6.7-11.5-11.3-13.8-4.6-2.2-10-3.4-16.2-3.4-8.8 0-15.6 2.2-20.4 6.5a31 31 0 0 0-9.5 16.7c-1.5 6.7-2.2 14.7-2.2 24v69.6h-26.5V213h26.5v4.8c9.6-6 20.8-9.1 32.1-8.8 11.1 0 20.3 2.1 27.7 6.2 6.8 3.8 12.8 9 17.4 15.3 4.4-6 10.1-11.1 17.4-15.3a55.5 55.5 0 0 1 27.8-6.2c16.1 0 29.9 5.5 41.3 16.5zM98.2 570.1H90l-5-13.7H61.5l-5 13.7h-8.2l20.2-54.8H78l20.3 54.8h-.1zm-16-21.4-9-23.8-8.8 23.8h17.8zm69.8-.8c2 .7 3.7 2 5.1 3.6 1.5 1.7 2.3 4 2.3 7a11 11 0 0 1-2 6.6c-1.4 2-3.4 3.5-5.6 4.5-2.4 1-5.2 1.6-8.3 1.6-2.5 0-5.2-.6-8.2-1.8s-5.5-3-7.5-5.5l6.4-4.4c2.5 2.5 5.8 3.9 9.3 4 3.3 0 5.5-.6 6.6-1.7 1-1.1 1.6-2.2 1.6-3.3 0-1-.2-1.7-.7-2.3-.4-.5-1.2-1-2.4-1.4a37 37 0 0 0-5.3-1.3h-.1c-2.7-.5-5-1-7-1.8-2-.7-3.8-2-5.3-3.7-1.4-1.7-2.2-4-2.2-7 0-2.5.6-4.6 2-6.5 1.2-2 3-3.4 5.2-4.5 5-2.3 10.8-2.2 15.7.2 3 1.2 5.5 3 7.5 5.5l-6.4 4.4a9.8 9.8 0 0 0-4.3-3c-1.7-.7-3.4-1-4.8-1-1.5 0-3 .3-4.8 1-1.6.6-2.5 2-2.5 3.9 0 1 .3 1.7.7 2.3.4.5 1.2 1 2.4 1.4s3 .9 5.4 1.3c2.8.5 5.2 1.2 7.2 1.9zm24.4 13.1a4 4 0 0 0 2 1.3c.8.1 1.9.1 3.2 0h1v7.8a20 20 0 0 1-10.7-2.5c-2.7-1.7-4-5.1-4-10.1v-20.3h-4.4v-7.6h4.3v-14.3h7.7v14.3h7.2v7.6h-7.2v20.3c0 1.6.3 2.7 1 3.5h-.1zm49.1 9.1h-7.7v-1.5c-2.8 1.8-6 2.7-9.3 2.6a17 17 0 0 1-12-4.7c-3.3-3.1-5-8.7-5-16.7v-20.3h7.7v20.3c0 3.7.4 6.6 1.2 8.7a8 8 0 0 0 3.3 4c1.3.6 3 1 4.8 1 2.6 0 4.5-.7 6-2a9 9 0 0 0 2.6-4.8c.5-2 .7-4.3.7-7v-20.2h7.7v40.6zm66.8-36.9c3.3 3.2 5 8.8 5 16.6v20.3h-7.7v-20.3c0-3.7-.4-6.6-1.3-8.6s-2-3.4-3.3-4c-1.4-.7-3-1-4.7-1-2.6 0-4.6.6-6 1.8s-2.2 3-2.7 4.9c-.4 2-.6 4.3-.6 7V570h-7.7v-20.3c0-3.7-.4-6.6-1.3-8.6-.8-2-2-3.4-3.3-4-1.3-.7-2.9-1-4.7-1-2.6 0-4.5.6-6 1.8a9 9 0 0 0-2.7 4.9c-.4 2-.6 4.3-.6 7V570H237v-40.5h7.7v1.4c2.5-1.7 5.7-2.6 9.3-2.6 5.1-.2 10 2 13.1 6.2 3.1-4.1 8-6.4 13.2-6.2 4.7 0 8.7 1.6 12 4.8v.1zm48.7.9c3.2 3.8 4.9 9 4.9 15.7a23 23 0 0 1-5 15.7 17 17 0 0 1-13.7 5.7c-4.2 0-7.9-1.1-11-3.2v2.1h-7.7v-54.8h7.8v16.3c3-2 6.6-3.2 11-3.2 5.8 0 10.4 2 13.6 5.7h.1zm-4.8 25.1c1.3-2.8 2-6 2-9.4 0-4.2-.7-7.3-2-9.3s-2.8-3.3-4.3-3.7a16 16 0 0 0-4.7-.7c-4.7 0-7.7 1.4-9 4.3-1.3 2.8-2 6-2 9.4 0 5.8 1.2 9.6 3.5 11.2a13 13 0 0 0 7.5 2.5c4.7 0 7.7-1.5 9-4.3zm33.3 3.2v7.7c-3 0-5.4-.3-7.5-.9-2.1-.6-4-2-5.2-3.7-1.4-1.8-2-4.5-2-8v-42.2h7.5v42.2c0 1.5.3 2.6.9 3.4.6.7 1.3 1.2 2.2 1.3.8.2 2 .2 3.3.2h.8zm3.3-32.8H386V570h-7.7v-32.9h-5.5v-7.6.1zm8.8-8.3a5 5 0 0 0 3.5-1.4c1-1 1.4-2.1 1.4-3.5s-.4-2.5-1.4-3.5-2.1-1.4-3.5-1.4-2.5.5-3.5 1.4c-1 1-1.4 2.1-1.4 3.5s.5 2.5 1.4 3.5c1 1 2.1 1.4 3.5 1.4zm44.4 11.9c3.4 3.2 5 8.7 5 16.6v20.3h-7.7v-20.3c0-3.7-.4-6.6-1.2-8.6-.9-2-2-3.4-3.3-4-1.3-.7-3-1-4.7-1a9 9 0 0 0-6 1.8 9.3 9.3 0 0 0-2.7 4.9c-.4 2-.7 4.3-.7 7V570h-7.6v-40.5h7.6v1.4c2.6-1.7 5.7-2.6 9.4-2.6 4.7 0 8.7 1.6 12 4.8l-.1.1zm46 47a17.2 17.2 0 0 1-13.6 5.6c-3.7 0-6.9-.7-9.6-2.2a16 16 0 0 1-6.3-6.7l7.4-2.5a8 8 0 0 0 4 3c1.4.5 3 .7 4.5.7 3.7 0 6.3-1 8-3a14 14 0 0 0 2.8-7.1c-3 2-6.6 3-10.8 3-5.8 0-10.4-1.8-13.7-5.6-3.3-3.8-5-9-5-15.7a23 23 0 0 1 5-15.7c3.2-3.7 7.8-5.6 13.7-5.6 4.3 0 8 1 11 3.2v-2.2h7.6v35c0 6.8-1.7 12-5 15.8zm-4.6-21.1c1.3-2.9 2-6 2-9.4 0-5.9-1.2-9.6-3.5-11.2a12.7 12.7 0 0 0-7.5-2.5c-4.7 0-7.7 1.4-9 4.3-1.3 2.9-2 6-2 9.4 0 4.1.7 7.2 2 9.3 1.3 2 2.8 3.2 4.3 3.7 1.5.4 3 .7 4.7.7 4.7 0 7.7-1.5 9-4.3zm68.2-11.2c2 .7 3.7 1.9 5.2 3.6 1.5 1.7 2.3 4 2.3 7a11 11 0 0 1-2 6.6c-1.4 2-3.4 3.6-5.7 4.5a21 21 0 0 1-23.9-5.7l6.4-4.4c2.5 2.5 5.8 3.9 9.3 4 3.3 0 5.5-.6 6.6-1.7 1-1.1 1.6-2.2 1.6-3.3a4 4 0 0 0-.7-2.3c-.4-.5-1.2-1-2.4-1.4-1.1-.4-2.9-.8-5.3-1.3h-.2c-2.6-.5-5-1-7-1.8-2-.7-3.7-2-5.2-3.7s-2.2-4-2.2-7c0-4.7 2.8-9 7.1-11a19 19 0 0 1 15.8.2c3 1.2 5.5 3 7.5 5.5l-6.4 4.4a9.8 9.8 0 0 0-4.3-3c-1.8-.7-3.4-1-4.9-1-1.4 0-3 .3-4.7 1-1.6.6-2.5 2-2.5 3.9 0 1 .2 1.7.7 2.3.4.5 1.2 1 2.4 1.4s3 .9 5.4 1.3c2.4.4 4.8 1 7.1 1.9zM560 561c.7.7 1.3 1.1 2.1 1.3.8.1 1.9.1 3.2 0h1v7.8a20 20 0 0 1-10.8-2.5c-2.6-1.7-4-5.1-4-10.1v-20.3h-4.3v-7.6h4.3v-14.3h7.7v14.3h7.2v7.6h-7.2v20.3c0 1.6.3 2.7.9 3.5h-.1zm24.4.5c2.2 1.3 4.5 2 7 2 2.6 0 4.7-.3 6.2-.7a5.5 5.5 0 0 0 3.2-2.4l7.4 2.5a13 13 0 0 1-5.8 6.1 23.2 23.2 0 0 1-11 2.2c-5.9 0-10.4-2-13.7-5.7-3.3-3.8-5-9-5-15.7a23 23 0 0 1 5-15.7c3.3-3.8 7.8-5.7 13.7-5.7s10.4 2 13.7 5.7c3.3 3.8 5 9 5 15.7l-.1 2.8h-29.5c.5 4.7 1.8 7.6 4 9l-.1-.1zm-.5-22.9a11.8 11.8 0 0 0-3 6.2h21c-.7-3.7-2.1-6-4.1-7.1-2-1-4.2-1.6-6.4-1.6-3.4 0-5.8.8-7.5 2.5zm68.4-4.6c3.3 3.8 5 9 5 15.7s-1.7 11.9-5 15.7a17 17 0 0 1-13.7 5.7c-4.3 0-8-1-11-3.2v16.3H620v-54.8h7.6v2.2a18 18 0 0 1 11-3.2c5.8 0 10.4 1.9 13.7 5.6zm-4.8 25c1.3-2.8 2-6 2-9.3 0-4.2-.7-7.3-2-9.3-1-1.7-2.4-3-4.2-3.7a16 16 0 0 0-4.7-.7c-4.7 0-7.7 1.4-9 4.3-1.3 2.9-2 6-2 9.4 0 5.8 1.2 9.6 3.5 11.2 2.2 1.7 4.8 2.5 7.5 2.5 4.6 0 7.6-1.5 9-4.3l-.1-.1zm82 11.1h-8l-8-27-8 27h-8l-11-40.5h8l7.2 26.5 7.8-26.5h8l8 26.5 7-26.5h8l-11 40.5zm32.8 1.1c-5.9 0-10.5-2-13.7-5.7-3.3-3.8-5-9-5-15.7a23 23 0 0 1 5-15.7 17 17 0 0 1 13.7-5.7c5.8 0 10.4 2 13.6 5.7 3.3 3.8 5 9 5 15.7a23 23 0 0 1-5 15.7 17 17 0 0 1-13.6 5.7zm0-35.1c-4.7 0-7.8 1.4-9 4.3-1.4 2.8-2 6-2 9.4 0 5.8 1.1 9.6 3.4 11.2a13 13 0 0 0 7.6 2.5c4.7 0 7.7-1.5 9-4.3s2-6 2-9.4c0-5.9-1.2-9.6-3.5-11.3a12.7 12.7 0 0 0-7.5-2.4zm35.1 10.3 15.1-16.8H823l-15.3 17 17 23.5H815l-12.7-17.7-5 5.5V570h-7.7v-54.8h7.7v31.1l.1.1zm41.6 15.1c2.1 1.3 4.4 2 6.9 2 2 0 4.2-.2 6.2-.7a5.5 5.5 0 0 0 3.2-2.4l7.4 2.5a13 13 0 0 1-5.8 6.1 23.2 23.2 0 0 1-11 2.2c-5.9 0-10.4-2-13.7-5.7-3.3-3.8-5-9-5-15.7a23 23 0 0 1 5-15.7c3.3-3.8 7.8-5.7 13.7-5.7s10.4 2 13.7 5.7c3.3 3.8 5 9 5 15.7v2.8H835c.4 4.7 1.7 7.6 3.9 9l.1-.1zm-.5-22.9a11.8 11.8 0 0 0-3.1 6.2h21c-.7-3.7-2-6-4.1-7.1-2-1-4.2-1.6-6.4-1.6-3.3 0-5.8.8-7.4 2.5zm476.8 27.6c0 1.3-.4 2.5-1.4 3.5s-2.1 1.4-3.5 1.4c-1.3 0-2.5-.5-3.5-1.4-1-1-1.4-2.2-1.4-3.5s.5-2.6 1.4-3.5a4.9 4.9 0 0 1 7 0c1 1 1.4 2.1 1.4 3.5z"/></svg>