<svg xmlns="http://www.w3.org/2000/svg" viewBox="0 0 1863 768"><path fill="#fff" d="M0 0h1863v768H0z"/><path d="M185.8 256.4v9.3a33 33 0 0 1-14.4-2.5c-3.4-1.8-5.7-4.1-7-7.2s-1.8-7-1.8-11.7V173h9.3v71.4c0 3.5.4 6 1.3 7.7.8 1.8 2 2.9 3.7 3.4 1.6.6 3.8 1 6.7 1h2.2zm21.8-5c3.1 4.5 8.1 6.8 15.2 6.8 5.2 0 9.2-.6 12-2 2.8-1.2 4.9-3.3 6.2-6.2l8.8 3a21.2 21.2 0 0 1-9.1 10.8 35.2 35.2 0 0 1-18 3.7c-9.3 0-16.5-3.1-21.7-9.5a41.2 41.2 0 0 1-7.8-26.7c0-11.5 2.6-20.4 7.8-26.7a26.7 26.7 0 0 1 21.8-9.5 27 27 0 0 1 22 9.5 41 41 0 0 1 7.7 26.7v2.9h-50c.4 6.8 2 12.6 5.1 17.1zm2.1-42.4c-3.7 3-6 8.3-7 15.9H243c-.7-6-2.6-11-5.7-14.8-3.1-3.8-8-5.7-14.4-5.7-5 0-9.4 1.5-13 4.6zm56.2-12h20.4v68.7H277v-59.5h-11.1v-9.1zm14.9-14a8 8 0 0 0 5.9-2.4 8 8 0 0 0 2.4-6 8 8 0 0 0-2.4-5.8 8 8 0 0 0-6-2.5 8 8 0 0 0-5.9 2.5 8 8 0 0 0-2.4 5.9 8 8 0 0 0 2.4 5.9 8 8 0 0 0 6 2.4zm68.2 16.8c4.5 3 8 7.6 10.1 13.5l-8.8 3a18.6 18.6 0 0 0-6.5-8.7 19 19 0 0 0-11.5-3.2c-5.7 0-10.6 2-14.5 6-4 3.9-6 10.9-6 20.9 0 7.6 1.6 14 4.5 19.1 3 5.2 8.3 7.8 16 7.8 3.7 0 7.2-.8 10.3-2.5 3.2-1.6 5.6-4.5 7.4-8.6l8.9 3a27.4 27.4 0 0 1-10.2 13 29 29 0 0 1-16.4 4.4c-9.4 0-16.8-3.1-22-9.5a41.2 41.2 0 0 1-7.7-26.7c0-11.5 2.6-20.4 7.8-26.7a26.9 26.9 0 0 1 22-9.5 29 29 0 0 1 16.6 4.7zm70.5 3.3c5.3 5.3 7.9 14.8 7.9 28.3v34.3h-9.3v-34.3c0-7.5-.9-13.2-2.7-17.2a15.2 15.2 0 0 0-6.4-7.8c-2.6-1.3-5.4-2-8.6-2-4.9 0-8.6 1.4-11.2 4-2.6 2.8-4.3 6-5.2 10s-1.2 8.2-1.2 13v34.3h-9.3V173h9.3v28.8a24.1 24.1 0 0 1 17.6-6.6c7.5 0 14 2.7 19.1 8zm39.5 49.3a5.3 5.3 0 0 0 3.1 3c1.5.5 3.7.8 6.6 1h3.5v9.3c-8.2 0-14.1-1.4-17.8-4.3-3.6-2.8-5.5-7.9-5.5-15.1v-40h-9.3v-9.2h9.3v-22.4h9.2V197h14v9.3h-14v39.9c0 2.7.3 4.7 1 6zM211.7 362.3c5.6 5.3 8.4 14.7 8.4 28.2v34.3h-13v-34.3c0-6.4-.7-11.3-2.2-14.8-1.4-3.4-3.3-5.7-5.5-6.8a18 18 0 0 0-8-1.6c-4.4 0-7.7 1-10 3.2a15.7 15.7 0 0 0-4.7 8.2 52 52 0 0 0-1.2 11.8v34.3h-12.9v-68.7h13v2.4c4.3-2.9 9.6-4.3 15.8-4.3 8 0 14.7 2.7 20.3 8zm54.7 64.3c-9.9 0-17.6-3.2-23.2-9.6s-8.3-15.3-8.3-26.7c0-11.3 2.8-20.1 8.3-26.5s13.3-9.6 23.2-9.6c10 0 17.7 3.2 23.2 9.6s8.4 15.2 8.4 26.5c0 11.4-2.8 20.3-8.4 26.7s-13.2 9.6-23.2 9.6zm0-59.5c-8 0-13 2.5-15.3 7.3a37.8 37.8 0 0 0-3.3 16c0 9.8 2 16.2 5.8 19 4 2.8 8.2 4.1 12.8 4.1 8 0 13.1-2.4 15.3-7.2a37.7 37.7 0 0 0 3.4-16c0-9.9-2-16.2-5.9-19a21.5 21.5 0 0 0-12.8-4.2zm86-11.1-3.1 12.6c-2-.9-4.5-1.3-7.5-1.3-4.4 0-7.7 1-10 3.2a15.7 15.7 0 0 0-4.7 8.2 52 52 0 0 0-1.2 11.8v34.3H313v-68.7h13v2.4c4.4-2.9 9.7-4.3 15.8-4.3 4 0 7.5.6 10.7 1.8zm104.3 6.3c5.6 5.4 8.4 14.8 8.4 28.2v34.3h-13v-34.3c0-6.4-.7-11.3-2.2-14.8-1.5-3.4-3.3-5.7-5.6-6.8a18 18 0 0 0-8-1.6c-4.4 0-7.7 1-10 3.2a15.4 15.4 0 0 0-4.6 8.2 55 55 0 0 0-1.1 11.8v34.3h-13v-34.3c0-6.4-.8-11.3-2.2-14.8-1.5-3.4-3.3-5.7-5.6-6.8a18 18 0 0 0-8-1.6c-4.3 0-7.7 1-10 3.2-2.4 2-4 4.8-4.7 8.2a55 55 0 0 0-1.1 11.8v34.3h-13.1v-68.7h13v2.4c4.4-2.9 9.7-4.3 16-4.3 5.4 0 10 1 13.5 3 3.7 2 6.5 4.6 8.7 7.6 2-3 5-5.5 8.5-7.6 3.6-2 8.1-3 13.7-3 8 0 14.8 2.7 20.4 8.1zm72.9-.3a28.4 28.4 0 0 1 7.7 21v41.8h-13v-3.7a38.9 38.9 0 0 1-33 3 19.5 19.5 0 0 1-8.5-6.7A22 22 0 0 1 485 392c3.5-4 8.4-6.7 14.7-8a81 81 0 0 1 24.6-1.4c0-5.1-1.5-9-4.1-11.6-2.7-2.7-6.6-4-11.7-4-7.3 0-12.2 2.8-14.5 8.2l-12.4-4c2-5.4 5.4-9.6 10-12.6 4.7-3 10.3-4.5 16.9-4.5 8.8 0 15.8 2.6 21 7.8zm-13.1 48.6c3.3-2 6-4 7.8-6.4v-8.4a61 61 0 0 0-21.8 1c-4 .8-6.5 2-7.8 3.9s-1.8 4-1.8 6.5c0 1.6.8 3.1 2.3 4.4 1.6 1.3 4.5 2 8.8 2 5 0 9.2-1 12.5-3zm62.7 1.1v13.1c-5 0-9.2-.5-12.7-1.5-3.6-1-6.5-3.1-8.9-6.3a22.7 22.7 0 0 1-3.4-13.6V332H567v71.4c0 2.6.5 4.5 1.5 5.8a6 6 0 0 0 3.6 2.3c1.5.2 3.4.3 5.6.2h1.4zM214.5 521c6.3 5.1 9.4 14.6 9.4 28.5V584h-16.8v-34.4a32 32 0 0 0-2-12.6c-1.3-2.9-2.9-4.7-4.8-5.6a18 18 0 0 0-7.1-1.2 18 18 0 0 0-7.1 1.2c-2 .9-3.6 2.7-4.9 5.6a32 32 0 0 0-2 12.6V584h-16.6v-93h16.7v25c4.3-1.8 9-2.7 13.9-2.7 8 0 15 2.5 21.3 7.7zm77.2.3a28.8 28.8 0 0 1 8.2 21.7l-.1 40.9h-16.7v-2a45.2 45.2 0 0 1-18.5 3.8c-5 0-9.6-.9-13.5-2.6-4-1.7-7-4-9.2-7.1a17.8 17.8 0 0 1-3.3-10.6c0-6.1 2-11.3 5.8-15.7 3.8-4.3 9.1-7 15.8-8.4 8.4-1.5 16-2 22.8-1.6-.5-3.4-1.9-5.8-4.1-7.3a17.2 17.2 0 0 0-9.7-2.3c-6.1 0-10.1 1.7-12 5.1l-16-5.3a25 25 0 0 1 10.4-12.3 34 34 0 0 1 17.6-4.3 31 31 0 0 1 22.5 8zm-16 45.6a27 27 0 0 0 7.4-4.7v-5.7c-6-.6-12.4-.1-19.6 1.2-3.5.8-5.8 1.8-6.7 3.2a7.6 7.6 0 0 0-1.5 4.5c0 1.3 1 2.2 3.1 2.8a26.8 26.8 0 0 0 17.3-1.3zm67.9.3v16.7a41 41 0 0 1-13.7-2.1c-4-1.4-7.1-3.7-9.5-7a22.7 22.7 0 0 1-3.6-13.2V491h16.6v70.6c0 1.2.1 2.2.4 2.9.2.7 1 1.3 2 1.8 1.2.5 3 .8 5.4.9h2.4zm69.8-44.3a38 38 0 0 1 8.9 26.6c0 11.3-3 20.2-8.9 26.6-5.9 6.4-14 9.6-24.5 9.6a37 37 0 0 1-16.7-3.6v1.8h-16.8V491h16.8v26c5-2.5 10.6-3.7 16.7-3.7 10.5 0 18.6 3.2 24.5 9.6zM401 565c3.1-2.6 4.7-7.8 4.7-15.5 0-5.3-.8-9.5-2.4-12.3a11.8 11.8 0 0 0-6-5.7c-2.4-1-5.2-1.4-8.3-1.4-5 0-9 1.3-12 4-3.1 2.6-4.7 7.7-4.7 15.4s1.6 12.9 4.7 15.5a18 18 0 0 0 12 4c5 0 9-1.3 12-4zm54.3-65.2c-1.3.3-2.2.8-2.6 1.6s-.6 2.4-.6 4.5v9.3h10.1V532H452v52h-16.8v-52h-5.6v-16.7h5.6V506c0-7 1.5-12.3 4.6-15.7 3-3.4 6.4-5.5 10.2-6.3 3.7-.8 7.8-1.2 12.1-1.2v16.8a53 53 0 0 0-6.9.3zm38.6 66.6c3 1.7 6.4 2.6 10.6 2.6 3 0 5.7-.2 7.9-.6 2.1-.4 3.9-1 5.2-1.8l16.5 5.5c-2.1 4.3-5.5 7.7-10.3 10s-11.1 3.6-19.3 3.6a31.9 31.9 0 0 1-24.6-9.6c-6-6.4-8.9-15.3-8.9-26.6s3-20.1 8.9-26.6a32 32 0 0 1 24.6-9.6c10.4 0 18.5 3.2 24.5 9.6a38 38 0 0 1 8.9 26.6c0 3 0 5-.2 6.6h-49.5c1 5 2.9 8.5 5.7 10.3zM495 532c-2.6 1.2-4.6 3.6-5.9 7.3h30.5a12 12 0 0 0-5.9-7.3 21.3 21.3 0 0 0-9.3-2c-3.6 0-6.7.7-9.4 2zm75.4 32.3c.2.7.8 1.3 1.8 1.9 1 .5 2.6.8 4.8.9h3.2V584a33 33 0 0 1-19.5-5.2c-4.8-3.4-7.3-9.1-7.5-17V532h-5.6v-16.7h5.6V491H570v24.2h10.2V532H570v29.7c0 1.1.1 2 .4 2.7zm40.8 0c.3.7.9 1.3 1.9 1.9 1 .5 2.6.8 4.7.9h3.2V584a33 33 0 0 1-19.4-5.2c-4.9-3.4-7.4-9.1-7.5-17V532h-5.6v-16.7h5.6V491h16.8v24.2H621V532h-10v29.7c0 1.1 0 2 .3 2.7zm195.5-113.6h-20l-48.8-139.3h20l39 110.8 38.9-110.8h20l-49 139.3zM963 322.8a57 57 0 0 1 15 41.6l-.3 86.3h-20.9v-11a70 70 0 0 1-43.7 14.7c-8.8 0-16.8-1.7-24-5.1-7-3.4-12.6-8-16.6-14.1-4-6-5.9-12.8-5.9-20.3a42 42 0 0 1 10.2-29 51.2 51.2 0 0 1 28.4-15.3c18.8-3.7 36.1-4.5 52-2.2 0-12.6-2.6-22.5-7.7-29.5s-14-10.6-27-10.6c-17.4 0-28.3 7-32.8 20.9l-19.7-6.5c3.6-11 9.9-19.7 19-26a58 58 0 0 1 33.4-9.3 54 54 0 0 1 40.6 15.4zm-22.4 103c7.3-5 12.7-10.2 16.2-15.7l.3-20.9c-14-2.2-30-1.6-47.6 2a28.4 28.4 0 0 0-16.7 8.3 23 23 0 0 0-5 15.4c0 5.4 2.3 9.9 6.9 13.2a30.2 30.2 0 0 0 18.4 5.1c11.1 0 20.3-2.5 27.5-7.5zm150-114.7-5.7 22.9a34.5 34.5 0 0 0-16.1-3.4c-7.7 0-14 1.8-18.9 5.5a32.8 32.8 0 0 0-11 16.3 91.7 91.7 0 0 0-3.7 28.7v69.6h-23V311.4h23v6.8a52 52 0 0 1 33.6-10.8c8 0 15.3 1.3 21.7 3.7zm14 .3h44.6v139.3H1124V336.5h-19.5v-25.1zm30.2-28.5a16 16 0 0 0 12-5c3.3-3.2 4.9-7.2 4.9-11.9s-1.6-8.7-5-12a16 16 0 0 0-12-5c-4.6 0-8.6 1.7-11.9 5-3.3 3.3-5 7.3-5 12s1.7 8.7 5 12c3.3 3.3 7.3 5 12 5zm146 40.3a57.6 57.6 0 0 1 15.9 42.9l-.3 84.6h-27.1v-7a80 80 0 0 1-40.6 10.7 64 64 0 0 1-26.1-5 40.6 40.6 0 0 1-17.3-13.8c-4.2-5.9-6.2-13-6.2-21a45 45 0 0 1 10.8-30.7 52.8 52.8 0 0 1 30.3-16.4 173 173 0 0 1 49.4-2.8 31.4 31.4 0 0 0-8.6-22.3c-5.4-5-13-7.6-23-7.6-14.5 0-24 5.3-28.8 15.8l-26-8.7a51.3 51.3 0 0 1 20.4-25.3 61.8 61.8 0 0 1 34.4-9.2 58 58 0 0 1 42.7 15.8zm-27.2 98c6.7-3.8 12-8 15.7-12.5V392a126.7 126.7 0 0 0-43.7 2.3c-7.7 1.7-12.8 4.3-15.4 7.9a20.9 20.9 0 0 0-3.8 12.4c0 3.2 1.7 6 5 8.6 3.5 2.5 9.2 3.8 17.3 3.8 10 0 18.3-2 25-5.8zm191.2-94.3c11.6 13 17.4 31 17.4 53.9 0 23-5.8 41.1-17.4 54.1-11.5 13-27.5 19.5-48 19.5-14 0-26-3.1-36.4-9.3v5.6h-29.6V262.3h29.6V317a67.8 67.8 0 0 1 36.4-9.6c20.5 0 36.5 6.5 48 19.5zm-20 86a58.1 58.1 0 0 0 7.8-32.1c0-12.8-2-22.4-6-28.8a27 27 0 0 0-13.5-12.3 49 49 0 0 0-16.3-2.6c-13.8 0-23.3 4-28.5 12-5.3 8-8 18.5-8 31.7 0 18.2 3.7 30.1 11 35.6a41 41 0 0 0 25.5 8.4c13.5 0 22.8-4 28-11.9zm121.4 6v31.8a84.8 84.8 0 0 1-27.3-4c-7.7-2.6-14-7.2-18.8-13.8a46 46 0 0 1-7.5-26.8V262.3h31.6v143.8c0 3.2.5 5.7 1.4 7.5 1 1.8 2.7 3.1 5.1 4a38 38 0 0 0 11 1.2h4.5zm61.5-3.7a41 41 0 0 0 21.4 5.3c6.2 0 11.5-.4 16-1.2 4.4-.9 7.9-2 10.5-3.6l33.6 11c-4.3 8.9-11.3 15.7-20.9 20.5s-22.6 7.2-39.2 7.2c-21.2 0-37.9-6.5-49.9-19.5s-18-31-18-53.8c0-23 6-41 18-54 12-13.1 28.7-19.7 50-19.7 21 0 37.5 6.6 49.6 19.6 12 13.1 18 31.1 18 54 0 5.9 0 10.3-.3 13.3H1596c2 10.3 5.8 17.3 11.6 20.9zm2.4-69.8c-5.4 2.5-9.4 7.5-12 14.8h61.8c-2.7-7.3-6.6-12.3-11.9-14.8-5.2-2.6-11.5-3.8-18.9-3.8s-13.6 1.2-19 3.8z"/></svg>