<svg xmlns="http://www.w3.org/2000/svg" viewBox="0 0 1366 768"><path fill="#fff" d="M0 0h1366v768H0z"/><path d="M384 361.9c2.9 3.3 4.3 7.9 4.3 13.8a20 20 0 0 1-4.3 13.7 15 15 0 0 1-12 5c-3.7 0-7-.9-9.7-2.8V406h-6.6v-48.1h6.6v1.8a16 16 0 0 1 9.7-2.8 15 15 0 0 1 12 5zm-4.2 22a19 19 0 0 0 1.8-8.2c0-3.7-.6-6.4-1.8-8.2a7.6 7.6 0 0 0-3.7-3.3 14 14 0 0 0-4.1-.6c-4.1 0-6.8 1.3-8 3.8a19.6 19.6 0 0 0-1.7 8.3c0 5 1 8.4 3 9.8a11 11 0 0 0 6.7 2.2c4 0 6.7-1.3 7.8-3.8zm39.8-22.9c2.7 2.7 4 6.4 4 11v21.6h-6.7v-2a20.1 20.1 0 0 1-17.1 1.7c-2-.9-3.4-2-4.4-3.6a9.2 9.2 0 0 1-1.6-5.3c0-3 1-5.7 2.7-7.8 1.9-2 4.4-3.4 7.7-4.1a42 42 0 0 1 12.7-.7c0-2.7-.7-4.7-2.1-6-1.4-1.4-3.4-2.1-6-2.1-3.9 0-6.4 1.4-7.6 4.3l-6.4-2.1c1-2.8 2.8-5 5.2-6.6 2.4-1.5 5.3-2.3 8.7-2.3a15 15 0 0 1 10.9 4zm-6.8 25.2c1.7-1 3-2 4-3.3v-4.4c-3.2-.5-7-.3-11.3.5-2 .5-3.3 1.2-4 2s-1 2.1-1 3.4c0 .9.5 1.7 1.3 2.3.8.7 2.3 1 4.5 1 2.6 0 4.8-.5 6.5-1.5zm49.2 7.4h-6.8v-1.3a14 14 0 0 1-8.1 2.2 15 15 0 0 1-10.5-4c-3-2.8-4.4-7.7-4.4-14.8V358h6.7v17.8c0 3.3.4 5.9 1.1 7.7.7 1.7 1.7 3 2.9 3.5 1.2.6 2.6.9 4.2.9 2.2 0 4-.6 5.2-1.7a8 8 0 0 0 2.4-4.3c.3-1.7.5-3.7.5-6V358h6.8v35.7zm28.5-19.5c1.7.6 3.2 1.7 4.5 3.1a9 9 0 0 1 2 6.2c0 2.2-.6 4.2-1.8 5.8-1.2 1.7-2.8 3-5 4-2 .9-4.4 1.3-7.2 1.3-2.1 0-4.5-.5-7.1-1.5-2.7-1-4.9-2.7-6.6-4.9l5.6-3.8c1 1.1 2.3 2 3.8 2.6 1.6.6 3 .9 4.3.9 3 0 4.9-.5 5.8-1.5 1-1 1.4-2 1.4-2.9 0-.8-.2-1.5-.6-2-.3-.5-1-.9-2-1.2a28 28 0 0 0-4.7-1.2h-.2c-2.3-.4-4.4-1-6.1-1.6a11 11 0 0 1-4.6-3.2 9.1 9.1 0 0 1-2-6.2c0-2.1.6-4 1.7-5.7a11 11 0 0 1 4.6-3.9c2-1 4.2-1.4 6.8-1.4 2.1 0 4.5.5 7 1.6 2.7 1 4.9 2.6 6.7 4.8l-5.6 3.8a9 9 0 0 0-3.8-2.6 12 12 0 0 0-4.3-.9c-1.3 0-2.7.3-4.1.9-1.5.5-2.2 1.7-2.2 3.4 0 .9.1 1.6.5 2 .4.5 1.1 1 2.2 1.3 1 .4 2.6.7 4.7 1.1 2.5.5 4.6 1 6.3 1.7zm36.7-14.7a14 14 0 0 1 5.6 6.8l-6.4 2.2c-1-2-2.1-3.3-3.6-3.8-1.5-.6-3-.9-4.6-.9-4.1 0-6.7 1.3-7.9 3.8a19.6 19.6 0 0 0-1.7 8.2c0 5.2 1 8.5 3 9.9 2 1.4 4.2 2.2 6.6 2.2 2 0 3.8-.4 5-1.2a7.9 7.9 0 0 0 3-3l6.4 2.1a14 14 0 0 1-5.6 6.6 16.6 16.6 0 0 1-8.8 2.2 15 15 0 0 1-12-5 20.2 20.2 0 0 1-4.3-13.8 20 20 0 0 1 4.3-13.7 15 15 0 0 1 12-5c3.5 0 6.5.8 9 2.4zm38.4 1.7c3 2.7 4.5 7.6 4.5 14.7v17.8h-6.8v-17.8a21 21 0 0 0-1.1-7.6c-.8-1.8-1.7-3-2.9-3.6a9.3 9.3 0 0 0-4.1-.8c-2.3 0-4 .5-5.2 1.6a8.2 8.2 0 0 0-2.4 4.3c-.4 1.7-.6 3.7-.6 6.1v17.8h-6.7v-48.1h6.7v13.7c2.3-1.4 5-2.2 8.2-2.2 4 0 7.5 1.4 10.4 4.1zm37.9 0c2.7 2.6 4 6.3 4 10.8v21.7h-6.8v-2a20.1 20.1 0 0 1-17 1.7c-2-.9-3.4-2-4.5-3.6a9.2 9.2 0 0 1-1.5-5.3c0-3 1-5.7 2.7-7.8 1.9-2 4.4-3.4 7.7-4.1a42 42 0 0 1 12.7-.7c0-2.7-.8-4.7-2.1-6-1.4-1.4-3.5-2.1-6.1-2.1-3.8 0-6.3 1.4-7.5 4.3l-6.4-2.1c1-2.8 2.8-5 5.2-6.6 2.4-1.5 5.3-2.3 8.7-2.3a15 15 0 0 1 10.9 4zm-6.8 25.1c1.7-1 3-2 4-3.3v-4.4c-3.2-.5-7-.3-11.3.5-2 .5-3.3 1.2-4 2s-1 2.1-1 3.4c0 .9.5 1.7 1.3 2.3.8.7 2.3 1 4.5 1 2.6 0 4.8-.5 6.5-1.5zm32.5.6v6.8c-2.6 0-4.8-.3-6.6-.8a8.4 8.4 0 0 1-4.6-3.2 12 12 0 0 1-1.8-7.1v-37h6.7v37c0 1.3.3 2.3.8 3a3 3 0 0 0 1.9 1.2c.7.1 1.7.2 2.9.1h.7z" style="fill:#00f"/><path d="M643.3 386a11 11 0 0 0 6 1.8c2.4 0 4.2-.2 5.5-.6a5 5 0 0 0 2.8-2.1l6.5 2.1a11 11 0 0 1-5 5.4c-2.4 1.3-5.6 2-9.8 2a15 15 0 0 1-12-5c-2.9-3.4-4.3-8-4.3-13.9a20 20 0 0 1 4.3-13.7 15 15 0 0 1 12-5c5.2 0 9.2 1.7 12.1 5 2.9 3.3 4.4 7.9 4.4 13.7l-.1 2.5h-25.9c.4 4.1 1.6 6.7 3.5 7.9zm-.5-20a10.4 10.4 0 0 0-2.7 5.4h18.5c-.6-3.3-1.9-5.4-3.6-6.3-1.8-1-3.7-1.4-5.7-1.4-2.9 0-5 .7-6.5 2.2zm84 22.3a14 14 0 0 1-5.9 4.6 21.7 21.7 0 0 1-8.7 1.6c-4.1 0-7.6-.9-10.5-2.6a13.7 13.7 0 0 1-6-7.3l6.4-2.1c.7 2 2 3.4 4 4.1a15 15 0 0 0 6.1 1.2 13 13 0 0 0 7.5-1.9c1.7-1.2 2.6-2.7 2.6-4.3 0-1.9-.9-3.4-2.7-4.6a49.3 49.3 0 0 0-8.7-4.4 86 86 0 0 1-8-3.7c-2-1.1-3.8-2.6-5.3-4.5a10.7 10.7 0 0 1-2.3-6.9c0-2.5.8-4.8 2.2-6.8a14 14 0 0 1 6-4.6 22 22 0 0 1 8.7-1.6c4.1 0 7.6.9 10.5 2.6 2.8 1.8 4.8 4.2 6 7.3l-6.5 2.2c-.7-2-2-3.4-4-4.2a16 16 0 0 0-6-1.2 13 13 0 0 0-7.5 1.9c-1.8 1.2-2.7 2.7-2.7 4.4 0 1.3.5 2.4 1.3 3.3a13 13 0 0 0 3.6 2.7c1.6.8 3.7 1.8 6.5 2.9 3.2 1.3 5.9 2.5 8 3.7 2 1.1 3.8 2.6 5.3 4.5 1.5 2 2.3 4.2 2.3 7 0 2.5-.7 4.7-2.2 6.7zm33.6-27.3c2.7 2.7 4 6.4 4 11v21.6h-6.8v-2a20.1 20.1 0 0 1-17 1.7c-2-.9-3.4-2-4.5-3.6a9.2 9.2 0 0 1-1.5-5.3c0-3 .9-5.7 2.7-7.8a14 14 0 0 1 7.7-4.1 42 42 0 0 1 12.7-.7c0-2.7-.8-4.7-2.2-6-1.4-1.4-3.4-2.1-6-2.1-3.8 0-6.3 1.4-7.5 4.3l-6.4-2.1c1-2.8 2.8-5 5.2-6.6 2.4-1.5 5.3-2.3 8.7-2.3a15 15 0 0 1 10.9 4zm-6.8 25.2c1.7-1 3-2 4-3.3v-4.4c-3.2-.5-7-.3-11.3.5-2 .5-3.3 1.2-4 2-.6 1-1 2.1-1 3.4 0 .9.5 1.7 1.3 2.3.8.7 2.3 1 4.5 1 2.6 0 4.8-.5 6.5-1.5zm27.2-.6c.6.6 1.2 1 1.8 1.1.7.1 1.7.2 2.8.1h1v6.8c-4 0-7.2-.8-9.5-2.2-2.4-1.5-3.6-4.5-3.6-8.9v-17.8h-3.8V358h3.8v-12.5h6.8V358h6.3v6.7H780v17.8c0 1.4.2 2.4.7 3zm38.2-20.9-18.2 22.1H819v6.8h-26.9v-6.8l18.2-22h-18.2V358h27v6.7zm25.6 9.4c1.7.6 3.3 1.7 4.6 3.1a9 9 0 0 1 2 6.2c0 2.2-.6 4.2-1.8 5.8-1.2 1.7-2.8 3-5 4s-4.5 1.3-7.2 1.3c-2.2 0-4.6-.5-7.2-1.5a16 16 0 0 1-6.6-4.9l5.7-3.8c1 1.1 2.2 2 3.8 2.6 1.6.6 3 .9 4.3.9 3 0 4.8-.5 5.8-1.5s1.4-2 1.4-2.9c0-.8-.2-1.5-.6-2-.4-.5-1-.9-2-1.2-1-.4-2.6-.8-4.8-1.2h-.1c-2.4-.4-4.4-1-6.2-1.6a11 11 0 0 1-4.5-3.2 9.1 9.1 0 0 1-2-6.2c0-2.1.6-4 1.7-5.7 1-1.7 2.6-3 4.6-3.9 2-1 4.2-1.4 6.8-1.4 2 0 4.4.5 7 1.6 2.7 1 4.9 2.6 6.6 4.8l-5.6 3.8a9 9 0 0 0-3.8-2.6 12 12 0 0 0-4.2-.9c-1.3 0-2.7.3-4.2.9-1.4.5-2.2 1.7-2.2 3.4 0 .9.2 1.6.6 2 .4.5 1 1 2.1 1.3 1 .4 2.6.7 4.7 1.1 2.5.5 4.6 1 6.3 1.7zm36.8-14.7a14 14 0 0 1 5.6 6.8l-6.4 2.2c-1-2-2.2-3.3-3.7-3.8a12 12 0 0 0-4.5-.9c-4.1 0-6.8 1.3-8 3.8a19.6 19.6 0 0 0-1.7 8.2c0 5.2 1 8.5 3 9.9 2 1.4 4.3 2.2 6.7 2.2 2 0 3.7-.4 5-1.2a7.9 7.9 0 0 0 3-3l6.4 2.1a14 14 0 0 1-5.6 6.6 16.6 16.6 0 0 1-8.8 2.2 15 15 0 0 1-12-5c-3-3.3-4.3-7.9-4.3-13.8 0-5.8 1.4-10.4 4.3-13.7s6.9-5 12-5c3.5 0 6.5.8 9 2.4zm38.4 1.7c3 2.7 4.4 7.6 4.4 14.7v17.8h-6.7v-17.8a21 21 0 0 0-1.1-7.6c-.8-1.8-1.8-3-3-3.6a9.3 9.3 0 0 0-4-.8c-2.3 0-4 .5-5.3 1.6a8.2 8.2 0 0 0-2.4 4.3c-.4 1.7-.6 3.7-.6 6.1v17.8h-6.7v-48.1h6.7v13.7c2.3-1.4 5-2.2 8.2-2.2 4 0 7.6 1.4 10.5 4.1zm34.8-3.2-1.6 6.6a9 9 0 0 0-4-.7c-2.2 0-4 .5-5.1 1.6a8.2 8.2 0 0 0-2.4 4.3c-.4 1.7-.6 3.7-.6 6.1v17.8h-6.7V358h6.7v1.2c2.3-1.4 5-2.2 8.2-2.2 2 0 3.9.3 5.5 1zm3.6.1h11.5v35.6H963v-28.9h-4.8V358zm7.7-7.3a4.2 4.2 0 0 0 4.3-4.3 4.2 4.2 0 0 0-4.3-4.3c-1.2 0-2.2.4-3 1.3-.9.8-1.3 1.8-1.3 3s.4 2.2 1.3 3c.8 1 1.8 1.3 3 1.3zm22.6-1.6c-.9.2-1.4.6-1.8 1.2a6 6 0 0 0-.5 2.9v4.8h6.2v6.7h-6.2v28.9h-6.8v-28.9h-3.8V358h3.8v-4.8c0-3 .6-5.4 1.8-7a8.4 8.4 0 0 1 4.6-3.3c1.9-.5 4-.8 6.6-.8v6.8a22 22 0 0 0-4 .2zm18.5 36.5c.5.6 1.1 1 1.8 1.1.7.1 1.6.2 2.8.1h1v6.8c-4 0-7.2-.8-9.6-2.2-2.3-1.5-3.5-4.5-3.5-8.9v-17.8h-3.8V358h3.8v-12.5h6.7V358h6.3v6.7h-6.3v17.8c0 1.4.3 2.4.8 3z"/></svg>